<svg xmlns="http://www.w3.org/2000/svg" viewBox="0 0 4800 2400"><defs><style>.cls-1{fill:#fff;}.cls-2,.cls-4{fill:#8c1d40;}.cls-3{fill:none;stroke:#8c1d40;stroke-width:3px;}.cls-4{font-size:24.63px;font-family:Arial-Black, Arial;font-weight:800;}</style></defs><g id="Layer_1" data-name="Layer 1"><rect class="cls-1" width="4800" height="2400"/><rect class="cls-1" width="4800" height="2400"/><path class="cls-2" d="M485.32,1056.34a149.49,149.49,0,0,0,45.86-7.12q22.25-7.14,32.68-13.75l10.44-7.13,44,87.9c-1.47,1.1-3.5,2.56-6.06,4.39s-8.51,5.21-17.86,10.15a208.8,208.8,0,0,1-29.94,12.91q-15.92,5.5-41.75,9.9a316.76,316.76,0,0,1-53.27,4.4q-63.17,0-119.75-31a247.59,247.59,0,0,1-91.2-85.41Q223.81,987.14,223.82,924a216,216,0,0,1,20.33-91.73q20.34-44,54.11-75.27t78.83-50a238.7,238.7,0,0,1,92.29-18.69q44,0,81,10.44t52.46,20.87l15.4,10.44-44,87.89a91.73,91.73,0,0,0-11.54-8q-7.69-4.69-30.77-12.38a146.88,146.88,0,0,0-46.67-7.69q-37.35,0-67,12.09t-47,31.87A146.9,146.9,0,0,0,345,876.44a124.71,124.71,0,0,0-9.07,46.42q0,51.64,38.71,92.56T485.32,1056.34Z" transform="translate(400 200)"/><path class="cls-2" d="M632.79,1116.24q-46.95-41.76-46.95-107.13t48.89-107.39q48.9-42,120.86-42,70.88,0,119.47,42.3t48.63,107.12q0,64.81-47.52,106.86t-120.58,42Q679.76,1158,632.79,1116.24Zm75.27-154.92q-18.93,18.67-18.93,47.79t18.12,47.52Q725.39,1075,755,1075q28.58,0,47-18.67t18.42-47.25q0-29.13-19-47.79T755,942.63Q727,942.63,708.06,961.32Z" transform="translate(400 200)"/><path class="cls-2" d="M936.85,1114.86q-39.54-43.12-39.54-105.75t39.54-106q39.57-43.4,100.54-43.4,56,0,92.3,35.15V677.32h97.22v472.42h-96.12v-31.86h-1.1q-36.26,40.11-92.3,40.11Q976.42,1158,936.85,1114.86Zm82.69-153.54q-18.94,18.67-18.94,47.79t18.13,47.52q18.12,18.4,47.79,18.4,28.56,0,47-18.67t18.41-47.25q0-29.13-19-47.79t-46.42-18.69Q1038.5,942.63,1019.54,961.32Z" transform="translate(400 200)"/><path class="cls-2" d="M1526.31,1022.3H1322q0,29.64,19.23,43.94t41.75,14.29q23.63,0,37.36-6.31t31.31-25l70.31,35.14Q1478,1158,1375.79,1158q-63.72,0-109.32-43.67t-45.6-105.21q0-61.51,45.6-105.46t109.32-44q67,0,109,38.73t42,110.69A101.4,101.4,0,0,1,1526.31,1022.3ZM1324.7,968.47h107.13q-3.3-22-17.31-33.8t-36-11.81q-24.18,0-38.46,12.65T1324.7,968.47Z" transform="translate(400 200)"/><path class="cls-2" d="M1520.82,696.53h131.29q94.47,0,161.5,64.56t67,161.77q0,97.8-66.75,162.33t-161.77,64.55H1520.82Zm103.27,360.91H1640q56.57,0,92.56-38.16t36.52-95.88q0-57.66-36-96.12T1640,788.82h-15.94Z" transform="translate(400 200)"/><path class="cls-2" d="M2159.7,1022.3H1955.34q0,29.64,19.23,43.94t41.75,14.29q23.63,0,37.35-6.31t31.32-25l70.31,35.14Q2111.37,1158,2009.17,1158q-63.7,0-109.31-43.67t-45.6-105.21q0-61.51,45.6-105.46t109.31-44q67,0,109,38.73t42,110.69A103.31,103.31,0,0,1,2159.7,1022.3Zm-201.61-53.83h107.13q-3.3-22-17.32-33.8t-36-11.81q-24.17,0-38.45,12.65T1958.09,968.47Z" transform="translate(400 200)"/><path class="cls-2" d="M2225.62,867.92l68.67,153.27L2363,867.92h115.36l-151.06,281.82h-65.92L2110.27,867.92Z" transform="translate(400 200)"/><path class="cls-2" d="M2458,710.82q17-17,40.65-17t40.64,17q17,17,17.05,40.65t-17.05,40.66q-17,17-40.64,17t-40.65-17q-17-17-17-40.66T2458,710.82Zm-9.33,157.1v281.82h97.23V867.92Z" transform="translate(400 200)"/><path class="cls-2" d="M2562.91,1149.74V677.32h97.23v472.42Z" transform="translate(400 200)"/><path class="cls-2" d="M2796.93,859.69a210.46,210.46,0,0,1,47.79,5.5q23.63,5.49,35.17,11l11.52,5.48-31.86,63.73q-33-17.58-62.62-17.58-16.48,0-23.36,3.58t-6.85,13.46a18.46,18.46,0,0,0,.54,4.4,10.38,10.38,0,0,0,2.21,4.12q1.64,1.92,3,3.29a18.31,18.31,0,0,0,4.67,3q3.28,1.65,5.2,2.48c1.3.54,3.41,1.37,6.34,2.46l6.58,2.48c1.47.54,3.94,1.37,7.42,2.46s6.13,1.83,8,2.21a193.7,193.7,0,0,1,29.66,11A162,162,0,0,1,2867,999.22a70.75,70.75,0,0,1,21.69,26.37q7.7,15.95,7.7,36.25,0,96.15-133.5,96.15a175.53,175.53,0,0,1-57.39-9.34q-27.19-9.35-39.27-18.68l-12.11-9.9,39.57-66.46q4.38,3.84,11.52,9.06t25.81,14.27q18.69,9.07,32.44,9.07,30.2,0,30.21-20.32a16.64,16.64,0,0,0-7.69-14.56q-7.69-5.22-26.11-11.81T2731,1027.24q-26.37-13.72-41.75-31t-15.37-45.9q0-42.83,33.22-66.73T2796.93,859.69Z" transform="translate(400 200)"/><circle class="cls-3" cx="3359.78" cy="1616.95" r="14.05"/><text class="cls-4" transform="translate(3350.37 1607.67) rotate(90) scale(0.95 1)">R</text></g><g id="Layer_2" data-name="Layer 2"><path class="cls-2" d="M3117.05,1470.45l.7-93.43,437-3c-.45,5.77-14.22,62.66-14.22,62.66,134.22-73.33,246.66-114.22,246.66-114.22s-112.44-40.89-246.66-114.22c0,0,13.77,56.89,14.22,62.67l-436.32-2.69-.7-92.76c405.85-47.18,541.24-199,541.24-199s-346.67,106.67-666,72.67l5.12,218.82L947.28,1287.45c-23.74,0-43,15.81-43,35.31s19.26,35.31,43,35.31L2997.43,1377l-5.15,219.82c319.34-34,666,72.67,666,72.67S3522.89,1517.64,3117.05,1470.45Zm-79.81-102.61.16-.06.29,0Z" transform="translate(400 200)"/></g></svg>