<svg xmlns="http://www.w3.org/2000/svg" xmlns:xlink="http://www.w3.org/1999/xlink" width="160" zoomAndPan="magnify" viewBox="0 0 120 44.999999" height="60" preserveAspectRatio="xMidYMid meet" version="1.0"><defs><clipPath id="20fe1b15a2"><path d="M 16 27 L 75 27 L 75 40.082031 L 16 40.082031 Z M 16 27 " clip-rule="nonzero"/></clipPath><clipPath id="30055652f0"><path d="M 20 4.519531 L 46 4.519531 L 46 26 L 20 26 Z M 20 4.519531 " clip-rule="nonzero"/></clipPath><clipPath id="b0a8598eb2"><path d="M 84 4.519531 L 102 4.519531 L 102 26 L 84 26 Z M 84 4.519531 " clip-rule="nonzero"/></clipPath><clipPath id="2586fc4d05"><path d="M 104 4.519531 L 119.285156 4.519531 L 119.285156 26 L 104 26 Z M 104 4.519531 " clip-rule="nonzero"/></clipPath><clipPath id="03559f2261"><path d="M 48 4.519531 L 67 4.519531 L 67 26 L 48 26 Z M 48 4.519531 " clip-rule="nonzero"/></clipPath><clipPath id="a9e3070e98"><path d="M 0.175781 4.519531 L 18 4.519531 L 18 26 L 0.175781 26 Z M 0.175781 4.519531 " clip-rule="nonzero"/></clipPath></defs><g clip-path="url(#20fe1b15a2)"><path fill="#636363" d="M 74.070312 32.332031 C 67.148438 37.386719 57.117188 40.082031 48.476562 40.082031 C 36.367188 40.082031 25.464844 35.644531 17.214844 28.261719 C 16.566406 27.683594 17.148438 26.890625 17.925781 27.34375 C 26.828125 32.476562 37.832031 35.5625 49.203125 35.5625 C 56.871094 35.5625 65.308594 33.992188 73.0625 30.730469 C 74.234375 30.234375 75.214844 31.488281 74.070312 32.332031 " fill-opacity="1" fill-rule="evenodd"/></g><path fill="#636363" d="M 76.945312 29.070312 C 76.066406 27.949219 71.097656 28.539062 68.867188 28.800781 C 68.191406 28.886719 68.085938 28.300781 68.699219 27.878906 C 72.652344 25.121094 79.144531 25.914062 79.902344 26.839844 C 80.660156 27.769531 79.703125 34.21875 75.988281 37.292969 C 75.417969 37.765625 74.871094 37.515625 75.125 36.886719 C 75.960938 34.824219 77.832031 30.195312 76.945312 29.070312 " fill-opacity="1" fill-rule="evenodd"/><path fill="#636363" d="M 69.023438 8.402344 L 69.023438 5.722656 C 69.023438 5.316406 69.335938 5.042969 69.707031 5.042969 L 81.824219 5.042969 C 82.214844 5.042969 82.523438 5.320312 82.523438 5.722656 L 82.523438 8.019531 C 82.519531 8.402344 82.191406 8.90625 81.613281 9.703125 L 75.335938 18.585938 C 77.667969 18.527344 80.128906 18.871094 82.246094 20.054688 C 82.722656 20.320312 82.851562 20.710938 82.886719 21.097656 L 82.886719 23.957031 C 82.886719 24.347656 82.453125 24.804688 81.996094 24.570312 C 78.269531 22.632812 73.316406 22.421875 69.195312 24.589844 C 68.777344 24.816406 68.335938 24.363281 68.335938 23.972656 L 68.335938 21.257812 C 68.335938 20.820312 68.339844 20.074219 68.78125 19.410156 L 76.054688 9.074219 L 69.722656 9.074219 C 69.335938 9.074219 69.023438 8.804688 69.023438 8.402344 " fill-opacity="1" fill-rule="evenodd"/><g clip-path="url(#30055652f0)"><path fill="#636363" d="M 24.824219 25.132812 L 21.140625 25.132812 C 20.785156 25.109375 20.507812 24.847656 20.480469 24.511719 L 20.480469 5.765625 C 20.480469 5.390625 20.796875 5.09375 21.191406 5.09375 L 24.628906 5.09375 C 24.988281 5.109375 25.273438 5.382812 25.296875 5.722656 L 25.296875 8.171875 L 25.363281 8.171875 C 26.261719 5.804688 27.945312 4.699219 30.21875 4.699219 C 32.523438 4.699219 33.964844 5.804688 35.003906 8.171875 C 35.894531 5.804688 37.921875 4.699219 40.09375 4.699219 C 41.640625 4.699219 43.328125 5.332031 44.363281 6.75 C 45.527344 8.324219 45.289062 10.617188 45.289062 12.625 L 45.285156 24.457031 C 45.285156 24.832031 44.96875 25.132812 44.574219 25.132812 L 40.894531 25.132812 C 40.523438 25.109375 40.230469 24.816406 40.230469 24.457031 L 40.230469 14.519531 C 40.230469 13.730469 40.300781 11.757812 40.125 11.007812 C 39.851562 9.75 39.027344 9.394531 37.957031 9.394531 C 37.066406 9.394531 36.132812 9.984375 35.753906 10.929688 C 35.375 11.875 35.414062 13.457031 35.414062 14.519531 L 35.414062 24.457031 C 35.414062 24.832031 35.097656 25.132812 34.703125 25.132812 L 31.019531 25.132812 C 30.648438 25.109375 30.359375 24.816406 30.359375 24.457031 L 30.351562 14.519531 C 30.351562 12.429688 30.699219 9.351562 28.082031 9.351562 C 25.433594 9.351562 25.535156 12.351562 25.535156 14.519531 L 25.535156 24.457031 C 25.535156 24.832031 25.21875 25.132812 24.824219 25.132812 " fill-opacity="1" fill-rule="evenodd"/></g><g clip-path="url(#b0a8598eb2)"><path fill="#636363" d="M 92.957031 4.699219 C 98.425781 4.699219 101.386719 9.351562 101.386719 15.269531 C 101.386719 20.988281 98.117188 25.523438 92.957031 25.523438 C 87.585938 25.523438 84.660156 20.871094 84.660156 15.070312 C 84.660156 9.234375 87.621094 4.699219 92.957031 4.699219 Z M 92.988281 8.527344 C 90.269531 8.527344 90.101562 12.195312 90.101562 14.480469 C 90.101562 16.769531 90.0625 21.660156 92.957031 21.660156 C 95.8125 21.660156 95.949219 17.714844 95.949219 15.3125 C 95.949219 13.730469 95.882812 11.839844 95.398438 10.339844 C 94.984375 9.035156 94.160156 8.527344 92.988281 8.527344 " fill-opacity="1" fill-rule="evenodd"/></g><g clip-path="url(#2586fc4d05)"><path fill="#636363" d="M 108.480469 25.132812 L 104.808594 25.132812 C 104.441406 25.109375 104.144531 24.816406 104.144531 24.457031 L 104.140625 5.707031 C 104.171875 5.363281 104.476562 5.09375 104.851562 5.09375 L 108.265625 5.09375 C 108.589844 5.109375 108.851562 5.324219 108.925781 5.617188 L 108.925781 8.484375 L 108.992188 8.484375 C 110.023438 5.921875 111.472656 4.699219 114.015625 4.699219 C 115.671875 4.699219 117.285156 5.289062 118.320312 6.90625 C 119.285156 8.40625 119.285156 10.929688 119.285156 12.742188 L 119.285156 24.542969 C 119.242188 24.871094 118.9375 25.132812 118.574219 25.132812 L 114.878906 25.132812 C 114.539062 25.109375 114.261719 24.863281 114.226562 24.542969 L 114.226562 14.363281 C 114.226562 12.3125 114.464844 9.3125 111.917969 9.3125 C 111.019531 9.3125 110.195312 9.90625 109.785156 10.8125 C 109.269531 11.957031 109.199219 13.097656 109.199219 14.363281 L 109.199219 24.457031 C 109.195312 24.832031 108.875 25.132812 108.480469 25.132812 " fill-opacity="1" fill-rule="evenodd"/></g><g clip-path="url(#03559f2261)"><path fill="#636363" d="M 59.367188 16.179688 C 59.367188 17.601562 59.402344 18.789062 58.675781 20.054688 C 58.089844 21.082031 57.15625 21.714844 56.125 21.714844 C 54.710938 21.714844 53.878906 20.644531 53.878906 19.066406 C 53.878906 15.953125 56.695312 15.390625 59.367188 15.390625 Z M 63.082031 25.082031 C 62.839844 25.300781 62.488281 25.3125 62.210938 25.171875 C 60.988281 24.164062 60.765625 23.695312 60.097656 22.734375 C 58.074219 24.78125 56.640625 25.390625 54.019531 25.390625 C 50.914062 25.390625 48.503906 23.496094 48.503906 19.699219 C 48.503906 16.734375 50.121094 14.714844 52.433594 13.730469 C 54.433594 12.855469 57.230469 12.703125 59.367188 12.460938 L 59.367188 11.988281 C 59.367188 11.121094 59.433594 10.09375 58.914062 9.34375 C 58.46875 8.671875 57.609375 8.394531 56.847656 8.394531 C 55.441406 8.394531 54.191406 9.105469 53.886719 10.585938 C 53.824219 10.914062 53.578125 11.238281 53.242188 11.253906 L 49.671875 10.875 C 49.371094 10.808594 49.03125 10.566406 49.121094 10.109375 C 49.941406 5.8125 53.859375 4.519531 57.363281 4.519531 C 59.160156 4.519531 61.503906 4.992188 62.917969 6.335938 C 64.710938 7.996094 64.539062 10.210938 64.539062 12.621094 L 64.539062 18.3125 C 64.539062 20.023438 65.253906 20.773438 65.929688 21.699219 C 66.164062 22.027344 66.214844 22.421875 65.914062 22.667969 C 65.164062 23.289062 63.824219 24.445312 63.089844 25.09375 L 63.082031 25.082031 " fill-opacity="1" fill-rule="evenodd"/></g><g clip-path="url(#a9e3070e98)"><path fill="#636363" d="M 11.039062 16.179688 C 11.039062 17.605469 11.074219 18.789062 10.351562 20.054688 C 9.765625 21.082031 8.835938 21.714844 7.800781 21.714844 C 6.382812 21.714844 5.558594 20.644531 5.558594 19.066406 C 5.558594 15.953125 8.375 15.390625 11.039062 15.390625 Z M 14.757812 25.082031 C 14.511719 25.300781 14.160156 25.316406 13.886719 25.171875 C 12.664062 24.164062 12.445312 23.695312 11.769531 22.734375 C 9.75 24.78125 8.316406 25.390625 5.695312 25.390625 C 2.59375 25.390625 0.175781 23.496094 0.175781 19.699219 C 0.175781 16.734375 1.800781 14.714844 4.109375 13.730469 C 6.109375 12.855469 8.902344 12.703125 11.039062 12.460938 L 11.039062 11.988281 C 11.039062 11.121094 11.105469 10.09375 10.59375 9.34375 C 10.140625 8.671875 9.28125 8.394531 8.523438 8.394531 C 7.121094 8.394531 5.863281 9.105469 5.558594 10.585938 C 5.496094 10.914062 5.253906 11.238281 4.921875 11.253906 L 1.34375 10.875 C 1.042969 10.808594 0.710938 10.566406 0.792969 10.109375 C 1.617188 5.8125 5.535156 4.519531 9.039062 4.519531 C 10.832031 4.519531 13.175781 4.992188 14.589844 6.339844 C 16.386719 7.996094 16.214844 10.210938 16.214844 12.621094 L 16.214844 18.3125 C 16.214844 20.023438 16.929688 20.773438 17.601562 21.699219 C 17.839844 22.027344 17.894531 22.421875 17.59375 22.667969 C 16.839844 23.289062 15.503906 24.445312 14.765625 25.09375 L 14.757812 25.082031 " fill-opacity="1" fill-rule="evenodd"/></g></svg>