<svg width="100" height="31" viewBox="0 0 100 31" fill="none" xmlns="http://www.w3.org/2000/svg">
<g clip-path="url(#clip0)">
<path fill-rule="evenodd" clip-rule="evenodd" d="M61.7592 23.9372C55.9741 28.2013 47.589 30.4763 40.3696 30.4763C30.2469 30.4763 21.1338 26.7323 14.2394 20.5052C13.6977 20.0155 14.183 19.3482 14.833 19.7295C22.2734 24.0586 31.4732 26.6629 40.9763 26.6629C47.3854 26.6629 54.4358 25.3369 60.9185 22.5852C61.8979 22.1692 62.7169 23.2266 61.7592 23.9372" fill="#636363"/>
<path fill-rule="evenodd" clip-rule="evenodd" d="M64.1642 21.1856C63.4275 20.2409 59.2762 20.7392 57.4128 20.9602C56.8452 21.0296 56.7585 20.5356 57.2698 20.1802C60.5762 17.8532 66.0016 18.5249 66.6342 19.3049C67.2669 20.0892 66.4696 25.5276 63.3625 28.1233C62.8859 28.522 62.4309 28.3096 62.6432 27.781C63.3409 26.0389 64.9052 22.1346 64.1642 21.1856" fill="#636363"/>
<path fill-rule="evenodd" clip-rule="evenodd" d="M57.5426 3.75239V1.49037C57.5426 1.14803 57.8026 0.918365 58.1147 0.918365H68.2418C68.5668 0.918365 68.8268 1.15237 68.8268 1.49037V3.42739C68.8224 3.75239 68.5494 4.17706 68.0641 4.84874L62.8164 12.3411C64.7664 12.2935 66.8247 12.5838 68.5928 13.5805C68.9914 13.8058 69.0998 14.1352 69.1301 14.4602V16.8739C69.1301 17.2032 68.7661 17.5889 68.3848 17.3895C65.2691 15.7559 61.1307 15.5782 57.6856 17.4069C57.3346 17.5975 56.9663 17.2162 56.9663 16.8869V14.5945C56.9663 14.2262 56.9706 13.5978 57.339 13.0388L63.4187 4.32007H58.1277C57.8026 4.32007 57.5426 4.0904 57.5426 3.75239" fill="#636363"/>
<path fill-rule="evenodd" clip-rule="evenodd" d="M20.6011 17.8662H17.5201C17.2254 17.8445 16.9914 17.6235 16.9697 17.3418V1.52932C16.9697 1.21298 17.2341 0.961646 17.5634 0.961646H20.4364C20.7354 0.974638 20.9738 1.20431 20.9954 1.49032V3.55734H21.0518C21.8014 1.55965 23.2098 0.627975 25.1078 0.627975C27.0362 0.627975 28.2408 1.55965 29.1075 3.55734C29.8529 1.55965 31.5472 0.627975 33.3629 0.627975C34.6542 0.627975 36.0669 1.16098 36.9293 2.35699C37.9043 3.68734 37.7049 5.62003 37.7049 7.31438L37.7006 17.2941C37.7006 17.6105 37.4363 17.8662 37.1069 17.8662H34.0302C33.7226 17.8445 33.4756 17.5975 33.4756 17.2941V8.91339C33.4756 8.24605 33.5362 6.58204 33.3889 5.94936C33.1592 4.88769 32.4702 4.58868 31.5775 4.58868C30.8322 4.58868 30.0522 5.08702 29.7359 5.88436C29.4195 6.68171 29.4499 8.01638 29.4499 8.91339V17.2941C29.4499 17.6105 29.1855 17.8662 28.8562 17.8662H25.7795C25.4675 17.8445 25.2248 17.5975 25.2248 17.2941L25.2205 8.91339C25.2205 7.14971 25.5108 4.55402 23.3225 4.55402C21.1081 4.55402 21.1948 7.08471 21.1948 8.91339V17.2941C21.1948 17.6105 20.9304 17.8662 20.6011 17.8662" fill="#636363"/>
<path fill-rule="evenodd" clip-rule="evenodd" d="M77.5457 0.627975C82.1174 0.627975 84.5918 4.55402 84.5918 9.54607C84.5918 14.3691 81.8574 18.1955 77.5457 18.1955C73.0563 18.1955 70.6123 14.2694 70.6123 9.37707C70.6123 4.45435 73.0867 0.627975 77.5457 0.627975V0.627975ZM77.5717 3.85634C75.301 3.85634 75.158 6.95037 75.158 8.87873C75.158 10.8114 75.1277 14.9368 77.5457 14.9368C79.9334 14.9368 80.0461 11.6088 80.0461 9.58073C80.0461 8.24606 79.9897 6.65137 79.5867 5.38602C79.2401 4.28535 78.5511 3.85634 77.5717 3.85634" fill="#636363"/>
<path fill-rule="evenodd" clip-rule="evenodd" d="M90.5201 17.8662H87.4521C87.1444 17.8445 86.8974 17.5975 86.8974 17.2941L86.8931 1.47732C86.9191 1.18698 87.1747 0.961646 87.4867 0.961646H90.3424C90.6111 0.974638 90.8321 1.15665 90.8928 1.40365V3.82167H90.9491C91.8115 1.65932 93.0205 0.627975 95.1481 0.627975C96.5305 0.627975 97.8782 1.12631 98.7449 2.49133C99.5509 3.75667 99.5509 5.88436 99.5509 7.41404V17.3678C99.5162 17.6451 99.2605 17.8662 98.9572 17.8662H95.8675C95.5858 17.8445 95.3518 17.6365 95.3215 17.3678V8.77906C95.3215 7.05004 95.5208 4.51935 93.3931 4.51935C92.6435 4.51935 91.9544 5.02202 91.6121 5.78469C91.1788 6.75104 91.1224 7.71305 91.1224 8.77906V17.2941C91.1181 17.6105 90.8494 17.8662 90.5201 17.8662" fill="#636363"/>
<path fill-rule="evenodd" clip-rule="evenodd" d="M49.47 10.3131C49.47 11.5134 49.5004 12.5145 48.8937 13.5805C48.404 14.4471 47.624 14.9802 46.7617 14.9802C45.5787 14.9802 44.8853 14.0788 44.8853 12.7485C44.8853 10.1224 47.2383 9.64576 49.47 9.64576V10.3131V10.3131ZM52.5771 17.8228C52.3734 18.0048 52.0787 18.0178 51.8491 17.8965C50.8264 17.0472 50.6401 16.6528 50.0811 15.8425C48.391 17.5672 47.1907 18.0829 45.0023 18.0829C42.4066 18.0829 40.3916 16.4838 40.3916 13.2815C40.3916 10.7811 41.7436 9.07809 43.6763 8.24608C45.349 7.50941 47.6847 7.37941 49.47 7.17574V6.77707C49.47 6.04472 49.5264 5.17805 49.093 4.54538C48.7204 3.9777 48.001 3.7437 47.364 3.7437C46.1897 3.7437 45.1453 4.34604 44.8897 5.59405C44.8377 5.87139 44.634 6.14439 44.3523 6.15739L41.3666 5.83672C41.1153 5.78039 40.8336 5.57672 40.9073 5.19105C41.5919 1.56835 44.868 0.476334 47.7974 0.476334C49.2967 0.476334 51.2554 0.875005 52.4384 2.01035C53.9378 3.41003 53.7948 5.27772 53.7948 7.31007V12.1115C53.7948 13.5545 54.3928 14.1871 54.9561 14.9672C55.1511 15.2445 55.1944 15.5782 54.9431 15.7862C54.3148 16.3105 53.1967 17.2855 52.5814 17.8315L52.5771 17.8228" fill="#636363"/>
<path fill-rule="evenodd" clip-rule="evenodd" d="M9.07843 10.3133C9.07843 11.5136 9.10876 12.5147 8.50209 13.5807C8.01241 14.4473 7.23674 14.9803 6.37006 14.9803C5.18705 14.9803 4.49805 14.079 4.49805 12.7487C4.49805 10.1226 6.85107 9.64596 9.07843 9.64596V10.3133V10.3133ZM12.1855 17.823C11.9818 18.005 11.6871 18.018 11.4574 17.8967C10.4348 17.0474 10.2528 16.653 9.68943 15.8427C7.99941 17.5674 6.8034 18.083 4.61071 18.083C2.01935 18.083 0 16.484 0 13.2817C0 10.7813 1.35635 9.07829 3.2847 8.24628C4.95738 7.5096 7.29307 7.3796 9.07843 7.17594V6.77726C9.07843 6.04492 9.13476 5.17825 8.70576 4.54558C8.32875 3.9779 7.60941 3.7439 6.97674 3.7439C5.80239 3.7439 4.75371 4.34624 4.49805 5.59425C4.44604 5.87159 4.24238 6.14459 3.96504 6.15759L0.97501 5.83692C0.723674 5.78059 0.446337 5.57692 0.515671 5.19125C1.20468 1.56855 4.47638 0.476532 7.40574 0.476532C8.90509 0.476532 10.8638 0.875204 12.0468 2.01055C13.5461 3.41023 13.4031 5.27791 13.4031 7.31027V12.1117C13.4031 13.5547 14.0011 14.1873 14.5645 14.9673C14.7638 15.2447 14.8071 15.5784 14.5558 15.7864C13.9275 16.3107 12.8095 17.2857 12.1941 17.8317L12.1855 17.823" fill="#636363"/>
</g>
<defs>
<clipPath id="clip0">
<rect width="99.5507" height="30" fill="white" transform="translate(0 0.476318)"/>
</clipPath>
</defs>
</svg>
