<svg width="35" height="40" viewBox="0 0 35 40" fill="none" xmlns="http://www.w3.org/2000/svg">
<g clip-path="url(#clip0)">
<path d="M33.4506 31.1721C32.8372 32.5696 32.1111 33.856 31.2698 35.0387C30.1231 36.651 29.1841 37.767 28.4605 38.3867C27.3388 39.404 26.137 39.925 24.8501 39.9546C23.9262 39.9546 22.812 39.6953 21.515 39.1694C20.2138 38.646 19.018 38.3867 17.9246 38.3867C16.7779 38.3867 15.548 38.646 14.2325 39.1694C12.915 39.6953 11.8537 39.9694 11.0422 39.9966C9.80808 40.0484 8.57797 39.5126 7.35012 38.3867C6.56643 37.7127 5.5862 36.5572 4.41192 34.9202C3.15202 33.1721 2.1162 31.145 1.30472 28.8339C0.435659 26.3377 0 23.9205 0 21.5803C0 18.8997 0.587388 16.5876 1.76392 14.6502C2.68857 13.0939 3.91868 11.8663 5.45825 10.9651C6.99783 10.0639 8.66135 9.60465 10.4528 9.57527C11.433 9.57527 12.7185 9.87427 14.3159 10.4619C15.9088 11.0515 16.9316 11.3505 17.38 11.3505C17.7153 11.3505 18.8515 11.0009 20.7777 10.3039C22.5992 9.65749 24.1365 9.38984 25.3959 9.49527C28.8086 9.76687 31.3724 11.0935 33.0775 13.4835C30.0254 15.3072 28.5156 17.8614 28.5457 21.1381C28.5732 23.6904 29.5121 25.8143 31.3574 27.5006C32.1937 28.2833 33.1276 28.8883 34.1667 29.3179C33.9413 29.9623 33.7035 30.5796 33.4506 31.1721ZM25.6238 0.800228C25.6238 2.80068 24.8826 4.6685 23.4054 6.39734C21.6227 8.45259 19.4664 9.6402 17.1282 9.4528C17.0984 9.21281 17.0811 8.96023 17.0811 8.6948C17.0811 6.77437 17.9289 4.71912 19.4344 3.03868C20.186 2.18784 21.142 1.48038 22.3012 0.916025C23.458 0.360092 24.5521 0.0526484 25.5812 0C25.6112 0.26743 25.6238 0.534876 25.6238 0.800202V0.800228Z" fill="#636363"/>
</g>
<defs>
<clipPath id="clip0">
<rect width="34.1667" height="40" fill="white"/>
</clipPath>
</defs>
</svg>
