<svg xmlns="http://www.w3.org/2000/svg" xmlns:xlink="http://www.w3.org/1999/xlink" width="160" zoomAndPan="magnify" viewBox="0 0 120 44.999999" height="60" preserveAspectRatio="xMidYMid meet" version="1.0"><defs><clipPath id="a9a8040414"><path d="M 40.324219 0.0117188 L 78.394531 0.0117188 L 78.394531 44.988281 L 40.324219 44.988281 Z M 40.324219 0.0117188 " clip-rule="nonzero"/></clipPath></defs><g clip-path="url(#a9a8040414)"><path fill="#636363" d="M 77.597656 35.0625 C 76.914062 36.632812 76.105469 38.078125 75.167969 39.410156 C 73.886719 41.222656 72.84375 42.476562 72.035156 43.171875 C 70.785156 44.316406 69.445312 44.902344 68.011719 44.9375 C 66.984375 44.9375 65.742188 44.644531 64.296875 44.050781 C 62.847656 43.464844 61.515625 43.171875 60.296875 43.171875 C 59.019531 43.171875 57.648438 43.464844 56.183594 44.050781 C 54.714844 44.644531 53.53125 44.953125 52.625 44.984375 C 51.25 45.042969 49.882812 44.4375 48.511719 43.171875 C 47.640625 42.414062 46.546875 41.117188 45.238281 39.273438 C 43.835938 37.308594 42.679688 35.03125 41.777344 32.433594 C 40.808594 29.625 40.324219 26.90625 40.324219 24.277344 C 40.324219 21.261719 40.976562 18.664062 42.289062 16.484375 C 43.320312 14.734375 44.6875 13.355469 46.40625 12.339844 C 48.121094 11.328125 49.972656 10.8125 51.96875 10.777344 C 53.0625 10.777344 54.496094 11.117188 56.273438 11.777344 C 58.050781 12.4375 59.1875 12.773438 59.6875 12.773438 C 60.0625 12.773438 61.328125 12.382812 63.476562 11.597656 C 65.503906 10.871094 67.21875 10.570312 68.621094 10.6875 C 72.421875 10.996094 75.28125 12.484375 77.179688 15.171875 C 73.78125 17.222656 72.097656 20.09375 72.128906 23.78125 C 72.160156 26.648438 73.207031 29.039062 75.265625 30.933594 C 76.195312 31.8125 77.238281 32.492188 78.394531 32.976562 C 78.144531 33.699219 77.878906 34.394531 77.597656 35.0625 Z M 68.875 0.914062 C 68.875 3.164062 68.050781 5.261719 66.402344 7.207031 C 64.417969 9.515625 62.015625 10.851562 59.410156 10.640625 C 59.375 10.371094 59.355469 10.085938 59.355469 9.789062 C 59.355469 7.628906 60.300781 5.320312 61.976562 3.429688 C 62.816406 2.472656 63.882812 1.679688 65.171875 1.042969 C 66.460938 0.417969 67.679688 0.0742188 68.828125 0.0117188 C 68.859375 0.3125 68.875 0.613281 68.875 0.914062 Z M 68.875 0.914062 " fill-opacity="1" fill-rule="nonzero"/></g></svg>