<svg width="117" height="41" viewBox="0 0 117 41" fill="none" xmlns="http://www.w3.org/2000/svg">
<g clip-path="url(#clip0)">
<path d="M18.0615 19.9131H23.0844V26.9611C21.5172 27.4642 19.5383 27.7401 17.4813 27.7401C9.14453 27.7401 4.24473 20.6079 4.24473 13.6425C4.24473 6.81091 8.67669 2.01895 14.8598 2.01895C18.7725 2.01895 21.0491 3.34315 23.0859 5.18772V7.4872L26.9049 3.67188C24.4893 2.03918 20.9915 0.487511 15.992 0.487511C5.01667 0.487511 0 8.33175 0 14.7782C0 23.9542 6.68997 29.4818 15.097 29.4818C19.1734 29.4818 22.7928 28.8602 26.9736 27.698V20.4163C26.9736 20.044 27.1374 19.7885 27.3822 19.5641L28.7015 18.2462H19.7426L18.0615 19.9131V19.9131Z" fill="#636363"/>
<path d="M40.5625 10.3351C34.2452 10.3351 30.3311 14.9467 30.3311 19.8416C30.3311 24.0667 33.4844 29.083 39.8732 29.083C46.0189 29.083 49.7896 24.4624 49.7896 19.4818C49.7896 14.8423 46.1047 10.3368 40.5625 10.3368V10.3351V10.3351ZM39.5143 11.6796C43.9682 11.6796 45.9517 17.4766 45.9517 21.6113C45.9517 27.7604 41.3343 27.8819 40.7822 27.8819C38.6692 27.8819 37.1923 26.6061 36.0869 24.9327C35.1138 23.3905 34.1626 20.5254 34.1626 17.7259C34.1626 14.9372 35.0762 13.5756 36.5142 12.5738C37.69 11.8229 38.791 11.6796 39.5128 11.6796H39.5143Z" fill="#636363"/>
<path d="M81.8581 10.3335C76.3407 10.3335 73.3559 13.8232 73.3559 17.7195C73.3559 20.6858 75.4829 24.0322 79.8712 24.0322H80.9814C80.9814 24.0322 80.679 24.766 80.6775 25.4748C80.6775 26.5203 81.0533 27.1075 81.8515 28.0111C74.3008 28.4707 71.2661 31.5133 71.2661 34.7834C71.2661 37.647 74.0109 40.4652 79.779 40.4652C86.6078 40.4652 90.1446 36.6777 90.1446 32.9607C90.1446 30.3403 88.8378 28.9039 85.5287 26.4268C84.5556 25.6713 84.3669 25.19 84.3669 24.6245C84.3669 23.8144 84.8519 23.2783 85.0297 23.0759C85.3431 22.7456 85.8858 22.3686 86.0885 22.1879C87.2004 21.2469 88.7708 19.8543 88.7708 17.0748C88.7708 15.168 87.9768 13.5275 86.168 11.9914H88.3762L90.0355 10.3338H81.8581V10.3335ZM80.3361 11.5735C81.3373 11.5735 82.173 11.9272 83.0556 12.661C84.0348 13.5428 85.5992 15.9124 85.5992 18.8443C85.5992 22.0085 83.1384 22.8746 81.8066 22.8746C81.1548 22.8746 80.3737 22.6924 79.7123 22.2406C78.2434 21.2889 76.7851 18.7555 76.7851 15.741C76.7851 13.0208 78.4069 11.5735 80.3361 11.5735ZM82.5209 29.2123C82.9417 29.2123 83.2444 29.2467 83.2444 29.2467C83.2444 29.2467 84.2378 29.9555 84.9317 30.4851C86.5473 31.761 87.5546 32.7363 87.5546 34.4735C87.5546 36.8618 85.337 38.7344 81.7456 38.7344C77.8035 38.7344 74.7906 36.9007 74.7906 33.9065C74.7906 31.4262 76.8553 29.2916 82.5209 29.2123Z" fill="#636363"/>
<path d="M91.23 28.5362H98.8042L99.958 27.3835L97.7857 27.1124C97.2009 27.0407 96.8533 26.536 96.8533 26.0468V3.19064C96.8533 2.74041 97.0623 2.50983 97.215 2.36323L98.5812 0.998497H92.122L90.4409 2.67793H92.9516V26.3535C92.9516 26.69 92.8456 26.919 92.6179 27.1543L91.23 28.5362V28.5362Z" fill="#636363"/>
<path d="M109.067 10.3351C104.838 10.3351 100.345 13.5553 100.345 19.3367C100.345 24.1116 103.569 29.083 109.591 29.083C111.093 29.083 112.329 28.89 113.488 28.3588C114.731 27.787 115.927 26.8585 116.8 25.6916C115.152 26.522 113.808 27.0672 112.022 27.0672C108.629 27.0672 105.357 24.6213 104.212 20.1252L116.2 15.2847C115.507 12.8186 113.555 10.3351 109.069 10.3351H109.067ZM108.284 11.6577C110.553 11.6577 112.194 13.5226 112.194 14.9824C112.194 15.4544 111.897 15.7037 111.311 15.9343L103.943 18.9114C103.943 18.9114 103.743 17.9845 103.743 16.9827C103.743 12.781 106.784 11.6577 108.284 11.6577V11.6577Z" fill="#636363"/>
<path d="M61.9985 10.3351C55.6812 10.3351 51.7671 14.9467 51.7671 19.8416C51.7671 24.0667 54.9204 29.083 61.3093 29.083C67.455 29.083 71.2257 24.4624 71.2257 19.4818C71.2257 14.8423 67.5407 10.3368 61.9985 10.3368V10.3351V10.3351ZM60.9505 11.6796C65.4044 11.6796 67.3878 17.4766 67.3878 21.6113C67.3878 27.7604 62.7703 27.8819 62.2183 27.8819C60.1052 27.8819 58.6285 26.6061 57.523 24.9327C56.5499 23.3905 55.5986 20.5254 55.5986 17.7259C55.5986 14.9372 56.5123 13.5756 57.9502 12.5738C59.126 11.8229 60.227 11.6796 60.9489 11.6796H60.9505Z" fill="#636363"/>
</g>
<defs>
<clipPath id="clip0">
<rect width="116.8" height="40" fill="white" transform="translate(0 0.476318)"/>
</clipPath>
</defs>
</svg>
