<svg xmlns="http://www.w3.org/2000/svg" xmlns:xlink="http://www.w3.org/1999/xlink" width="160" zoomAndPan="magnify" viewBox="0 0 120 44.999999" height="60" preserveAspectRatio="xMidYMid meet" version="1.0"><defs><clipPath id="bea116e834"><path d="M 0.242188 2.042969 L 30 2.042969 L 30 32 L 0.242188 32 Z M 0.242188 2.042969 " clip-rule="nonzero"/></clipPath><clipPath id="df4e9e7a0e"><path d="M 73 12 L 93 12 L 93 43.019531 L 73 43.019531 Z M 73 12 " clip-rule="nonzero"/></clipPath><clipPath id="5b5b0ad5e4"><path d="M 92 2.042969 L 103 2.042969 L 103 31 L 92 31 Z M 92 2.042969 " clip-rule="nonzero"/></clipPath><clipPath id="c0b9bbb671"><path d="M 102 12 L 119.554688 12 L 119.554688 32 L 102 32 Z M 102 12 " clip-rule="nonzero"/></clipPath></defs><g clip-path="url(#bea116e834)"><path fill="#636363" d="M 18.691406 21.953125 L 23.820312 21.953125 L 23.820312 29.171875 C 22.222656 29.6875 20.199219 29.972656 18.097656 29.972656 C 9.582031 29.972656 4.578125 22.664062 4.578125 15.53125 C 4.578125 8.53125 9.105469 3.621094 15.421875 3.621094 C 19.417969 3.621094 21.742188 4.980469 23.824219 6.867188 L 23.824219 9.222656 L 27.722656 5.316406 C 25.257812 3.644531 21.683594 2.054688 16.578125 2.054688 C 5.363281 2.054688 0.242188 10.089844 0.242188 16.691406 C 0.242188 26.09375 7.074219 31.753906 15.664062 31.753906 C 19.828125 31.753906 23.523438 31.117188 27.792969 29.929688 L 27.792969 22.46875 C 27.792969 22.085938 27.960938 21.824219 28.210938 21.597656 L 29.558594 20.246094 L 20.40625 20.246094 Z M 18.691406 21.953125 " fill-opacity="1" fill-rule="nonzero"/></g><path fill="#636363" d="M 41.675781 12.140625 C 35.222656 12.140625 31.222656 16.867188 31.222656 21.878906 C 31.222656 26.207031 34.445312 31.347656 40.972656 31.347656 C 47.25 31.347656 51.101562 26.613281 51.101562 21.511719 C 51.101562 16.757812 47.335938 12.144531 41.675781 12.144531 Z M 40.605469 13.519531 C 45.15625 13.519531 47.179688 19.457031 47.179688 23.691406 C 47.179688 29.992188 42.464844 30.117188 41.902344 30.117188 C 39.742188 30.117188 38.234375 28.808594 37.105469 27.09375 C 36.109375 25.515625 35.136719 22.582031 35.136719 19.710938 C 35.136719 16.855469 36.070312 15.460938 37.539062 14.433594 C 38.742188 13.664062 39.867188 13.519531 40.605469 13.519531 Z M 40.605469 13.519531 " fill-opacity="1" fill-rule="nonzero"/><g clip-path="url(#df4e9e7a0e)"><path fill="#636363" d="M 83.859375 12.140625 C 78.226562 12.140625 75.175781 15.714844 75.175781 19.707031 C 75.175781 22.746094 77.347656 26.171875 81.832031 26.171875 L 82.964844 26.171875 C 82.964844 26.171875 82.65625 26.925781 82.65625 27.652344 C 82.65625 28.722656 83.039062 29.324219 83.855469 30.25 C 76.140625 30.71875 73.039062 33.835938 73.039062 37.1875 C 73.039062 40.121094 75.84375 43.007812 81.738281 43.007812 C 88.714844 43.007812 92.324219 39.125 92.324219 35.320312 C 92.324219 32.636719 90.992188 31.164062 87.609375 28.625 C 86.617188 27.851562 86.425781 27.359375 86.425781 26.78125 C 86.425781 25.949219 86.917969 25.402344 87.101562 25.191406 C 87.421875 24.855469 87.976562 24.46875 88.183594 24.285156 C 89.320312 23.320312 90.921875 21.894531 90.921875 19.046875 C 90.921875 17.09375 90.113281 15.410156 88.265625 13.839844 L 90.519531 13.839844 L 92.214844 12.140625 Z M 82.304688 13.410156 C 83.328125 13.410156 84.183594 13.773438 85.085938 14.523438 C 86.085938 15.425781 87.683594 17.855469 87.683594 20.859375 C 87.683594 24.101562 85.167969 24.988281 83.808594 24.988281 C 83.144531 24.988281 82.34375 24.800781 81.667969 24.335938 C 80.167969 23.363281 78.679688 20.765625 78.679688 17.679688 C 78.679688 14.894531 80.335938 13.410156 82.304688 13.410156 Z M 84.539062 31.480469 C 84.96875 31.480469 85.277344 31.515625 85.277344 31.515625 C 85.277344 31.515625 86.292969 32.242188 87 32.78125 C 88.652344 34.089844 89.679688 35.089844 89.679688 36.867188 C 89.679688 39.316406 87.414062 41.234375 83.746094 41.234375 C 79.71875 41.234375 76.640625 39.355469 76.640625 36.289062 C 76.640625 33.746094 78.75 31.5625 84.539062 31.480469 Z M 84.539062 31.480469 " fill-opacity="1" fill-rule="nonzero"/></g><g clip-path="url(#5b5b0ad5e4)"><path fill="#636363" d="M 93.433594 30.785156 L 101.171875 30.785156 L 102.351562 29.605469 L 100.132812 29.328125 C 99.535156 29.253906 99.179688 28.738281 99.179688 28.238281 L 99.179688 4.824219 C 99.179688 4.363281 99.394531 4.125 99.546875 3.976562 L 100.945312 2.578125 L 94.347656 2.578125 L 92.628906 4.296875 L 95.195312 4.296875 L 95.195312 28.550781 C 95.195312 28.894531 95.085938 29.128906 94.851562 29.371094 Z M 93.433594 30.785156 " fill-opacity="1" fill-rule="nonzero"/></g><g clip-path="url(#c0b9bbb671)"><path fill="#636363" d="M 111.65625 12.140625 C 107.335938 12.140625 102.746094 15.441406 102.746094 21.363281 C 102.746094 26.253906 106.039062 31.347656 112.191406 31.347656 C 113.726562 31.347656 114.988281 31.148438 116.171875 30.605469 C 117.441406 30.019531 118.664062 29.066406 119.554688 27.871094 C 117.871094 28.722656 116.5 29.28125 114.675781 29.28125 C 111.207031 29.28125 107.867188 26.777344 106.695312 22.171875 L 118.941406 17.210938 C 118.234375 14.6875 116.242188 12.140625 111.65625 12.140625 Z M 110.855469 13.496094 C 113.171875 13.496094 114.851562 15.40625 114.851562 16.902344 C 114.851562 17.386719 114.546875 17.640625 113.949219 17.878906 L 106.421875 20.925781 C 106.421875 20.925781 106.21875 19.976562 106.21875 18.953125 C 106.21875 14.648438 109.324219 13.496094 110.855469 13.496094 Z M 110.855469 13.496094 " fill-opacity="1" fill-rule="nonzero"/></g><path fill="#636363" d="M 63.574219 12.140625 C 57.121094 12.140625 53.121094 16.867188 53.121094 21.878906 C 53.121094 26.207031 56.34375 31.347656 62.871094 31.347656 C 69.148438 31.347656 73 26.613281 73 21.511719 C 73 16.757812 69.234375 12.144531 63.574219 12.144531 Z M 62.503906 13.519531 C 67.054688 13.519531 69.078125 19.457031 69.078125 23.691406 C 69.078125 29.992188 64.363281 30.117188 63.796875 30.117188 C 61.640625 30.117188 60.132812 28.808594 59.003906 27.09375 C 58.007812 25.515625 57.035156 22.582031 57.035156 19.710938 C 57.035156 16.855469 57.96875 15.460938 59.4375 14.433594 C 60.640625 13.664062 61.765625 13.519531 62.5 13.519531 Z M 62.503906 13.519531 " fill-opacity="1" fill-rule="nonzero"/></svg>