<svg width="100" height="40" viewBox="0 0 100 40" fill="none" xmlns="http://www.w3.org/2000/svg">
<path fill-rule="evenodd" clip-rule="evenodd" d="M0 0V2.73667H19.3864V0H0ZM22.1332 0V2.73667H49.7599C49.7599 2.73667 46.938 0 43.2005 0H22.1332ZM55.1794 0V2.73667H71.8931L70.9012 0H55.1794ZM83.8759 0L82.8839 2.73667H99.4458V0H83.8759ZM0 5.32214V8.05881H19.3864V5.32214H0ZM22.1332 5.32619V8.05905H52.9655C52.9655 8.05905 52.6056 5.95262 51.9774 5.32619H22.1332ZM55.1794 5.32619V8.05905H73.7255L72.8073 5.32619H55.1794ZM81.8917 5.32619L80.9736 8.05905H99.4458V5.32619H81.8917ZM5.5713 10.6443V13.385H13.9669V10.6443H5.5713ZM27.7045 10.6443V13.385H36.1003V10.6443H27.7045ZM44.2664 10.6443V13.385H52.6622C52.6622 13.385 53.1953 11.9376 53.1953 10.6443H44.2664ZM60.7507 10.6443V13.385H75.6358L74.6436 10.6443H60.7507ZM80.0632 10.6443L79.0672 13.385H94.0263V10.6443H80.0632ZM5.5713 15.9707V18.7074H13.9669V15.9707H5.5713ZM27.7045 15.9707V18.7074H49.149C49.149 18.7074 50.943 17.3031 51.5145 15.9707H27.7045ZM60.7507 15.9707V18.7074H69.1463V17.1838L69.6794 18.7074H85.0587L85.6307 17.1838V18.7074H94.0263V15.9707H78.2657L77.4293 18.2886L76.5889 15.9707H60.7507ZM5.5713 21.2929V24.0295H13.9669V21.2929H5.5713ZM27.7045 21.2929V24.0295H51.5145C50.943 22.7014 49.149 21.2929 49.149 21.2929H27.7045ZM60.7507 21.2929V24.0295H69.1463V21.2929H60.7507ZM70.6714 21.2929L71.6868 24.0295H83.2183L84.1832 21.2929H70.6714ZM85.6305 21.2929V24.0295H94.0263V21.2929H85.6305ZM5.5713 26.615V29.3517H13.9669V26.615H5.5713ZM27.7045 26.615V29.3517H36.1003V26.615H27.7045ZM44.2664 26.615V29.3517H53.1951C53.1951 28.06 52.6622 26.615 52.6622 26.615H44.2664ZM60.7507 26.615V29.3517H69.1463V26.615H60.7507ZM72.5779 26.615L73.5621 29.3517H81.2927L82.2847 26.615H72.5779ZM85.6305 26.615V29.3517H94.0263V26.615H85.6305ZM0.151768 31.9371V34.6779H19.5382V31.9371H0.151768ZM22.1332 31.9371V34.6779H51.9774C52.6056 34.0502 52.9655 31.9371 52.9655 31.9371H22.1332ZM55.3312 31.9371V34.6779H69.1463V31.9371H55.3312ZM74.4881 31.9371L75.4995 34.6779H79.4329L80.3821 31.9371H74.4881ZM85.6305 31.9371V34.6779H99.5976V31.9371H85.6305ZM0.151768 37.2633V40H19.5382V37.2633H0.151768ZM22.1332 37.2633V39.9962H43.2005C46.938 39.9962 49.7599 37.2633 49.7599 37.2633H22.1332ZM55.3312 37.2633V40H69.1463V37.2633H55.3312ZM76.406 37.2633L77.3788 39.9924L77.546 39.9962L78.5344 37.2633H76.406ZM85.6305 37.2633V40H99.5976V37.2633H85.6305Z" fill="#636363"/>
</svg>
