<svg xmlns="http://www.w3.org/2000/svg" xmlns:xlink="http://www.w3.org/1999/xlink" width="160" zoomAndPan="magnify" viewBox="0 0 120 44.999999" height="60" preserveAspectRatio="xMidYMid meet" version="1.0"><defs><clipPath id="488e29899a"><path d="M 3.75 0 L 116 0 L 116 45 L 3.75 45 Z M 3.75 0 " clip-rule="nonzero"/></clipPath></defs><g clip-path="url(#488e29899a)"><path fill="#636363" d="M 3.75 0 L 3.75 3.078125 L 25.558594 3.078125 L 25.558594 0 Z M 28.648438 0 L 28.648438 3.078125 L 59.730469 3.078125 C 59.730469 3.078125 56.554688 0 52.351562 0 Z M 65.828125 0 L 65.828125 3.078125 L 84.628906 3.078125 L 83.515625 0 Z M 98.109375 0 L 96.996094 3.078125 L 115.625 3.078125 L 115.625 0 Z M 3.75 5.988281 L 3.75 9.066406 L 25.558594 9.066406 L 25.558594 5.988281 Z M 28.648438 5.992188 L 28.648438 9.066406 L 63.335938 9.066406 C 63.335938 9.066406 62.929688 6.695312 62.222656 5.992188 Z M 65.828125 5.992188 L 65.828125 9.066406 L 86.691406 9.066406 L 85.660156 5.992188 Z M 95.878906 5.992188 L 94.84375 9.066406 L 115.625 9.066406 L 115.625 5.992188 Z M 10.019531 11.976562 L 10.019531 15.058594 L 19.460938 15.058594 L 19.460938 11.976562 Z M 34.917969 11.976562 L 34.917969 15.058594 L 44.363281 15.058594 L 44.363281 11.976562 Z M 53.550781 11.976562 L 53.550781 15.058594 L 62.996094 15.058594 C 62.996094 15.058594 63.59375 13.429688 63.59375 11.976562 Z M 72.09375 11.976562 L 72.09375 15.058594 L 88.839844 15.058594 L 87.722656 11.976562 Z M 93.820312 11.976562 L 92.699219 15.058594 L 109.53125 15.058594 L 109.53125 11.976562 Z M 10.019531 17.96875 L 10.019531 21.046875 L 19.460938 21.046875 L 19.460938 17.96875 Z M 34.917969 17.96875 L 34.917969 21.046875 L 59.042969 21.046875 C 59.042969 21.046875 61.0625 19.464844 61.703125 17.96875 Z M 72.09375 17.96875 L 72.09375 21.046875 L 81.539062 21.046875 L 81.539062 19.332031 L 82.140625 21.046875 L 99.441406 21.046875 L 100.085938 19.332031 L 100.085938 21.046875 L 109.53125 21.046875 L 109.53125 17.96875 L 91.800781 17.96875 L 90.859375 20.574219 L 89.914062 17.96875 Z M 10.019531 23.953125 L 10.019531 27.03125 L 19.460938 27.03125 L 19.460938 23.953125 Z M 34.917969 23.953125 L 34.917969 27.03125 L 61.703125 27.03125 C 61.0625 25.539062 59.042969 23.953125 59.042969 23.953125 Z M 72.09375 23.953125 L 72.09375 27.03125 L 81.539062 27.03125 L 81.539062 23.953125 Z M 83.253906 23.953125 L 84.398438 27.03125 L 97.371094 27.03125 L 98.457031 23.953125 Z M 100.085938 23.953125 L 100.085938 27.03125 L 109.53125 27.03125 L 109.53125 23.953125 Z M 10.019531 29.941406 L 10.019531 33.019531 L 19.460938 33.019531 L 19.460938 29.941406 Z M 34.917969 29.941406 L 34.917969 33.019531 L 44.363281 33.019531 L 44.363281 29.941406 Z M 53.550781 29.941406 L 53.550781 33.019531 L 63.59375 33.019531 C 63.59375 31.566406 62.996094 29.941406 62.996094 29.941406 Z M 72.09375 29.941406 L 72.09375 33.019531 L 81.539062 33.019531 L 81.539062 29.941406 Z M 85.398438 29.941406 L 86.507812 33.019531 L 95.203125 33.019531 L 96.320312 29.941406 Z M 100.085938 29.941406 L 100.085938 33.019531 L 109.53125 33.019531 L 109.53125 29.941406 Z M 3.921875 35.929688 L 3.921875 39.011719 L 25.730469 39.011719 L 25.730469 35.929688 Z M 28.648438 35.929688 L 28.648438 39.011719 L 62.222656 39.011719 C 62.929688 38.304688 63.335938 35.929688 63.335938 35.929688 Z M 65.996094 35.929688 L 65.996094 39.011719 L 81.539062 39.011719 L 81.539062 35.929688 Z M 87.550781 35.929688 L 88.6875 39.011719 L 93.113281 39.011719 L 94.179688 35.929688 Z M 100.085938 35.929688 L 100.085938 39.011719 L 115.796875 39.011719 L 115.796875 35.929688 Z M 3.921875 41.921875 L 3.921875 45 L 25.730469 45 L 25.730469 41.921875 Z M 28.648438 41.921875 L 28.648438 44.996094 L 52.351562 44.996094 C 56.554688 44.996094 59.730469 41.921875 59.730469 41.921875 Z M 65.996094 41.921875 L 65.996094 45 L 81.539062 45 L 81.539062 41.921875 Z M 89.707031 41.921875 L 90.800781 44.992188 L 90.988281 44.996094 L 92.101562 41.921875 Z M 100.085938 41.921875 L 100.085938 45 L 115.796875 45 L 115.796875 41.921875 Z M 100.085938 41.921875 " fill-opacity="1" fill-rule="evenodd"/></g></svg>