<svg xmlns="http://www.w3.org/2000/svg" xmlns:xlink="http://www.w3.org/1999/xlink" width="160" zoomAndPan="magnify" viewBox="0 0 120 44.999999" height="60" preserveAspectRatio="xMidYMid meet" version="1.0"><path fill="#636363" d="M 44.261719 11.335938 L 48.769531 11.335938 L 56.433594 25.359375 L 64.097656 11.335938 L 68.507812 11.335938 L 68.507812 34.378906 L 64.832031 34.378906 L 64.832031 16.71875 L 58.109375 28.945312 L 54.660156 28.945312 L 47.9375 16.71875 L 47.9375 34.378906 L 44.261719 34.378906 Z M 44.261719 11.335938 " fill-opacity="1" fill-rule="nonzero"/><path fill="#636363" d="M 80.371094 34.789062 C 78.667969 34.789062 77.171875 34.410156 75.878906 33.644531 C 74.589844 32.882812 73.582031 31.828125 72.863281 30.476562 C 72.140625 29.128906 71.78125 27.582031 71.78125 25.835938 C 71.78125 24.070312 72.132812 22.507812 72.835938 21.144531 C 73.542969 19.785156 74.523438 18.71875 75.773438 17.953125 C 77.027344 17.183594 78.46875 16.800781 80.097656 16.800781 C 81.710938 16.800781 83.105469 17.1875 84.269531 17.960938 C 85.4375 18.734375 86.335938 19.816406 86.964844 21.210938 C 87.59375 22.605469 87.90625 24.238281 87.90625 26.117188 L 87.90625 27.136719 L 75.425781 27.136719 C 75.652344 28.542969 76.214844 29.648438 77.109375 30.453125 C 78.003906 31.257812 79.136719 31.664062 80.503906 31.664062 C 81.597656 31.664062 82.542969 31.496094 83.335938 31.167969 C 84.125 30.839844 84.871094 30.339844 85.5625 29.671875 L 87.515625 32.089844 C 85.574219 33.890625 83.191406 34.789062 80.371094 34.789062 Z M 83.058594 21.121094 C 82.289062 20.324219 81.277344 19.925781 80.03125 19.925781 C 78.816406 19.925781 77.796875 20.332031 76.980469 21.144531 C 76.160156 21.957031 75.640625 23.050781 75.425781 24.421875 L 84.375 24.421875 C 84.265625 23.015625 83.828125 21.917969 83.058594 21.121094 Z M 83.058594 21.121094 " fill-opacity="1" fill-rule="nonzero"/><path fill="#636363" d="M 92.367188 20.257812 L 88.980469 20.257812 L 88.980469 17.210938 L 92.367188 17.210938 L 92.367188 12.175781 L 95.914062 12.175781 L 95.914062 17.210938 L 101.058594 17.210938 L 101.058594 20.257812 L 95.914062 20.257812 L 95.914062 27.976562 C 95.914062 29.257812 96.132812 30.175781 96.566406 30.722656 C 97 31.273438 97.742188 31.546875 98.796875 31.546875 C 99.261719 31.546875 99.65625 31.527344 99.984375 31.488281 C 100.308594 31.453125 100.667969 31.398438 101.058594 31.332031 L 101.058594 34.34375 C 100.613281 34.476562 100.15625 34.574219 99.699219 34.640625 C 99.171875 34.71875 98.644531 34.757812 98.113281 34.757812 C 94.28125 34.757812 92.367188 32.640625 92.367188 28.402344 Z M 92.367188 20.257812 " fill-opacity="1" fill-rule="nonzero"/><path fill="#636363" d="M 119.546875 34.378906 L 116.0625 34.378906 L 116.0625 31.976562 C 115.445312 32.875 114.65625 33.570312 113.703125 34.058594 C 112.75 34.546875 111.664062 34.789062 110.449219 34.789062 C 108.949219 34.789062 107.625 34.402344 106.46875 33.628906 C 105.3125 32.855469 104.40625 31.792969 103.742188 30.4375 C 103.082031 29.082031 102.75 27.53125 102.75 25.785156 C 102.75 24.03125 103.085938 22.476562 103.757812 21.128906 C 104.433594 19.777344 105.363281 18.71875 106.550781 17.953125 C 107.738281 17.183594 109.101562 16.800781 110.644531 16.800781 C 111.804688 16.800781 112.84375 17.027344 113.769531 17.484375 C 114.675781 17.929688 115.464844 18.59375 116.0625 19.417969 L 116.0625 17.210938 L 119.546875 17.210938 Z M 115.996094 23.21875 C 115.617188 22.242188 115.019531 21.472656 114.199219 20.90625 C 113.378906 20.339844 112.433594 20.058594 111.359375 20.058594 C 109.839844 20.058594 108.628906 20.574219 107.730469 21.605469 C 106.828125 22.636719 106.378906 24.03125 106.378906 25.785156 C 106.378906 27.554688 106.8125 28.953125 107.679688 29.984375 C 108.550781 31.015625 109.726562 31.53125 111.210938 31.53125 C 112.308594 31.53125 113.285156 31.246094 114.140625 30.675781 C 115 30.105469 115.617188 29.335938 115.996094 28.371094 Z M 115.996094 23.21875 " fill-opacity="1" fill-rule="nonzero"/><path fill="#636363" d="M 26.488281 10.554688 C 23.53125 10.554688 21.21875 12.808594 19.128906 15.671875 C 16.25 11.96875 13.847656 10.554688 10.96875 10.554688 C 5.097656 10.554688 0.601562 18.28125 0.601562 26.457031 C 0.601562 31.570312 3.050781 34.796875 7.148438 34.796875 C 10.097656 34.796875 12.222656 33.390625 15.992188 26.722656 C 15.992188 26.722656 17.566406 23.914062 18.648438 21.980469 C 19.027344 22.597656 19.425781 23.265625 19.84375 23.980469 L 21.613281 26.992188 C 25.058594 32.820312 26.976562 34.796875 30.457031 34.796875 C 34.449219 34.796875 36.671875 31.527344 36.671875 26.304688 C 36.671875 17.746094 32.074219 10.554688 26.488281 10.554688 Z M 13.117188 24.917969 C 10.058594 29.765625 9 30.851562 7.296875 30.851562 C 5.546875 30.851562 4.503906 29.296875 4.503906 26.523438 C 4.503906 20.585938 7.429688 14.519531 10.917969 14.519531 C 12.808594 14.519531 14.386719 15.621094 16.804688 19.121094 C 14.507812 22.683594 13.117188 24.917969 13.117188 24.917969 Z M 24.660156 24.308594 L 22.542969 20.738281 C 21.972656 19.796875 21.421875 18.933594 20.894531 18.140625 C 22.800781 15.164062 24.371094 13.683594 26.242188 13.683594 C 30.125 13.683594 33.234375 19.46875 33.234375 26.574219 C 33.234375 29.28125 32.355469 30.851562 30.539062 30.851562 C 28.796875 30.851562 27.964844 29.6875 24.660156 24.308594 Z M 24.660156 24.308594 " fill-opacity="1" fill-rule="nonzero"/></svg>