<svg width="246" height="58" viewBox="0 0 246 58" fill="none" xmlns="http://www.w3.org/2000/svg">
<path d="M90.5547 5.91846H99.8472L115.648 34.4572L131.448 5.91848H140.54V52.813H132.958V16.8719L119.103 41.7595H111.991L98.1363 16.8719V52.813H90.5547V5.91846Z" fill="#636363"/>
<path d="M164.995 53.6506C161.484 53.6506 158.397 52.8746 155.736 51.3226C153.074 49.7706 151 47.6212 149.513 44.8746C148.026 42.1278 147.282 38.9791 147.282 35.4287C147.282 31.8336 148.009 28.6515 149.463 25.8823C150.916 23.1136 152.935 20.9475 155.518 19.3838C158.101 17.8211 161.07 17.0396 164.425 17.0391C167.757 17.0391 170.625 17.8262 173.03 19.4005C175.433 20.9752 177.284 23.1804 178.582 26.0162C179.878 28.8524 180.527 32.1797 180.527 35.9981V38.0745H154.797C155.267 40.9334 156.424 43.1832 158.269 44.8241C160.114 46.4655 162.446 47.2861 165.263 47.286C167.522 47.286 169.468 46.951 171.101 46.2811C172.733 45.6112 174.265 44.5952 175.697 43.2332L179.722 48.1569C175.719 51.8196 170.809 53.6508 164.995 53.6506ZM170.53 25.8318C168.942 24.213 166.862 23.4035 164.291 23.4032C161.786 23.4032 159.689 24.2296 158.001 25.8822C156.312 27.5348 155.244 29.7567 154.797 32.548H173.248C173.024 29.6895 172.118 27.4508 170.53 25.8318Z" fill="#636363"/>
<path d="M189.72 24.0736H182.742V17.8767H189.72V7.62701H197.033V17.8767H207.634V24.0736H197.033V39.7831C197.033 42.3956 197.481 44.2601 198.375 45.3768C199.269 46.4937 200.801 47.052 202.971 47.0516C203.932 47.0516 204.749 47.0125 205.42 46.9344C206.091 46.8565 206.829 46.7504 207.634 46.6161V52.7458C206.715 53.0111 205.779 53.2127 204.833 53.349C203.75 53.5081 202.657 53.5864 201.562 53.5834C193.667 53.5834 189.72 49.2736 189.72 40.6541V24.0736Z" fill="#636363"/>
<path d="M245.744 52.813H238.565V47.9226C237.29 49.7539 235.669 51.1663 233.701 52.1598C231.733 53.1531 229.496 53.6501 226.991 53.6506C223.905 53.6506 221.171 52.8634 218.789 51.2888C216.407 49.7146 214.534 47.5486 213.17 44.7908C211.806 42.0329 211.123 38.8787 211.124 35.3282C211.124 31.7554 211.817 28.5955 213.204 25.8485C214.59 23.1021 216.508 20.9472 218.957 19.3838C221.406 17.8211 224.218 17.0396 227.394 17.0392C229.787 17.0392 231.934 17.5026 233.835 18.4295C235.71 19.3352 237.334 20.6866 238.565 22.3651V17.8768H245.744V52.813ZM238.431 30.1028C237.648 28.1153 236.412 26.5465 234.724 25.3963C233.035 24.2464 231.084 23.6715 228.87 23.6715C225.739 23.6715 223.245 24.721 221.389 26.82C219.532 28.9191 218.604 31.7552 218.605 35.3282C218.605 38.9237 219.499 41.7709 221.288 43.8698C223.077 45.9689 225.504 47.0184 228.568 47.0183C230.827 47.0183 232.839 46.4376 234.607 45.2763C236.373 44.1157 237.648 42.5526 238.431 40.5869V30.1028Z" fill="#636363"/>
<path d="M53.9227 4.33337C47.8261 4.33337 43.0604 8.91821 38.7462 14.7424C32.8177 7.20533 27.8597 4.33337 21.9264 4.33337C9.82988 4.33337 0.561523 20.052 0.561523 36.6892C0.561523 47.1003 5.60591 53.6667 14.0552 53.6667C20.1364 53.6667 24.51 50.8041 32.2852 37.2336C32.2852 37.2336 35.5263 31.5188 37.7559 27.5821C38.5373 28.8417 39.3601 30.1989 40.2246 31.6538L43.8706 37.778C50.973 49.645 54.9301 53.6667 62.1007 53.6667C70.3319 53.6667 74.9128 47.0105 74.9128 36.383C74.9128 18.9633 65.4355 4.33337 53.9227 4.33337ZM26.3562 33.5591C20.0523 43.4258 17.8715 45.6373 14.3618 45.6373C10.7499 45.6373 8.60318 42.4712 8.60318 36.8253C8.60318 24.7472 14.6344 12.3968 21.8242 12.3968C25.7177 12.3968 28.9713 14.642 33.9551 21.7659C29.2228 29.0135 26.3562 33.5591 26.3562 33.5591ZM50.1478 32.317L45.7884 25.0577C44.6087 23.142 43.475 21.3786 42.3872 19.7677C46.3162 13.7127 49.5571 10.6957 53.4116 10.6957C61.4192 10.6957 67.8252 22.4676 67.8252 36.9274C67.8252 42.4391 66.0172 45.6373 62.271 45.6373C58.6805 45.6373 56.9652 43.2696 50.1478 32.317Z" fill="#636363"/>
</svg>
