<svg xmlns="http://www.w3.org/2000/svg" xmlns:xlink="http://www.w3.org/1999/xlink" width="160" zoomAndPan="magnify" viewBox="0 0 120 44.999999" height="60" preserveAspectRatio="xMidYMid meet" version="1.0"><defs><clipPath id="0065f74bf0"><path d="M 0 5 L 26 5 L 26 40.5 L 0 40.5 Z M 0 5 " clip-rule="nonzero"/></clipPath></defs><g clip-path="url(#0065f74bf0)"><path fill="#636363" d="M 21.054688 13.460938 L 23.582031 9.074219 C 24.316406 7.789062 23.882812 6.144531 22.601562 5.410156 C 21.316406 4.671875 19.671875 5.105469 18.933594 6.390625 L 16.394531 10.777344 C 10.996094 9.074219 4.949219 11.28125 2.003906 16.390625 C 0.128906 19.636719 -0.101562 23.375 1.039062 26.652344 L 5.714844 18.542969 C 6.78125 16.679688 8.527344 15.351562 10.605469 14.789062 C 12.683594 14.226562 14.851562 14.515625 16.710938 15.597656 C 20.550781 17.820312 21.878906 22.757812 19.65625 26.59375 C 17.433594 30.433594 12.511719 31.761719 8.660156 29.539062 L 11.34375 24.890625 C 12.628906 25.628906 14.273438 25.195312 15.007812 23.910156 C 15.746094 22.625 15.3125 20.980469 14.027344 20.246094 C 12.742188 19.507812 11.097656 19.941406 10.363281 21.226562 L 1.816406 36.046875 C 1.082031 37.332031 1.515625 38.976562 2.800781 39.714844 C 4.082031 40.449219 5.730469 40.015625 6.464844 38.730469 L 9.003906 34.34375 C 14.402344 36.046875 20.449219 33.839844 23.394531 28.730469 C 26.335938 23.636719 25.226562 17.300781 21.054688 13.460938 Z M 21.054688 13.460938 " fill-opacity="1" fill-rule="nonzero"/></g><path fill="#636363" d="M 32.414062 16.652344 L 36.570312 16.652344 C 38.980469 16.652344 40.972656 17.847656 40.972656 20.621094 C 40.972656 23.390625 38.980469 24.601562 36.570312 24.601562 L 34.851562 24.601562 L 34.851562 28.484375 L 32.414062 28.484375 Z M 36.496094 22.46875 C 37.695312 22.46875 38.460938 21.933594 38.460938 20.621094 C 38.460938 19.292969 37.667969 18.800781 36.496094 18.800781 L 34.851562 18.800781 L 34.851562 22.46875 Z M 36.496094 22.46875 " fill-opacity="1" fill-rule="nonzero"/><path fill="#636363" d="M 44.535156 16.652344 L 52.359375 16.652344 L 52.359375 18.789062 L 46.976562 18.789062 L 46.976562 21.5 L 51.722656 21.5 L 51.722656 23.59375 L 46.976562 23.59375 L 46.976562 26.335938 L 52.601562 26.335938 L 52.601562 28.472656 L 44.535156 28.472656 Z M 44.535156 16.652344 " fill-opacity="1" fill-rule="nonzero"/><path fill="#636363" d="M 56.6875 16.652344 L 59.113281 16.652344 L 59.113281 26.335938 L 64.464844 26.335938 L 64.464844 28.472656 L 56.6875 28.472656 Z M 56.6875 16.652344 " fill-opacity="1" fill-rule="nonzero"/><path fill="#636363" d="M 67.179688 22.566406 C 67.179688 19.074219 69.894531 16.507812 73.296875 16.507812 C 76.703125 16.507812 79.417969 19.074219 79.417969 22.566406 C 79.417969 26.0625 76.703125 28.628906 73.296875 28.628906 C 69.894531 28.628906 67.179688 26.0625 67.179688 22.566406 Z M 76.90625 22.566406 C 76.90625 20.359375 75.449219 18.671875 73.296875 18.671875 C 71.148438 18.671875 69.691406 20.359375 69.691406 22.566406 C 69.691406 24.777344 71.148438 26.464844 73.296875 26.464844 C 75.449219 26.464844 76.90625 24.777344 76.90625 22.566406 Z M 76.90625 22.566406 " fill-opacity="1" fill-rule="nonzero"/><path fill="#636363" d="M 85.40625 18.789062 L 82.03125 18.789062 L 82.03125 16.652344 L 91.207031 16.652344 L 91.207031 18.789062 L 87.832031 18.789062 L 87.832031 28.472656 L 85.390625 28.472656 L 85.390625 18.789062 Z M 85.40625 18.789062 " fill-opacity="1" fill-rule="nonzero"/><path fill="#636363" d="M 93.804688 22.566406 C 93.804688 19.074219 96.519531 16.507812 99.925781 16.507812 C 103.332031 16.507812 106.042969 19.074219 106.042969 22.566406 C 106.042969 26.0625 103.332031 28.628906 99.925781 28.628906 C 96.519531 28.628906 93.804688 26.0625 93.804688 22.566406 Z M 103.53125 22.566406 C 103.53125 20.359375 102.074219 18.671875 99.925781 18.671875 C 97.777344 18.671875 96.316406 20.359375 96.316406 22.566406 C 96.316406 24.777344 97.777344 26.464844 99.925781 26.464844 C 102.074219 26.464844 103.53125 24.777344 103.53125 22.566406 Z M 103.53125 22.566406 " fill-opacity="1" fill-rule="nonzero"/><path fill="#636363" d="M 113.460938 22.988281 C 112.871094 22.425781 112.046875 21.371094 112.046875 21.371094 C 112.046875 21.371094 112.222656 22.667969 112.222656 23.519531 L 112.222656 28.472656 L 109.941406 28.472656 L 109.941406 16.550781 L 110.1875 16.550781 L 116.148438 22.148438 C 116.722656 22.683594 117.53125 23.765625 117.53125 23.765625 C 117.53125 23.765625 117.375 22.425781 117.375 21.617188 L 117.375 16.664062 L 119.652344 16.664062 L 119.652344 28.585938 L 119.40625 28.585938 Z M 113.460938 22.988281 " fill-opacity="1" fill-rule="nonzero"/></svg>