<svg width="146" height="44" viewBox="0 0 146 44" fill="none" xmlns="http://www.w3.org/2000/svg">
<path d="M25.4015 10.9533L28.4883 5.59109C29.3879 4.02122 28.8587 2.01038 27.2888 1.1108C25.719 0.211211 23.7081 0.740379 22.8085 2.31025L19.7041 7.67249C13.1071 5.59109 5.71639 8.28985 2.11804 14.534C-0.175022 18.5028 -0.457246 23.0713 0.936231 27.0753L6.65125 17.1622C7.95653 14.8868 10.0908 13.264 12.6309 12.5761C15.1709 11.8882 17.8167 12.241 20.0921 13.5639C24.7841 16.2803 26.4069 22.3128 23.6905 27.0048C20.9741 31.6967 14.9592 33.3195 10.2496 30.6031L13.5304 24.9234C15.1003 25.823 17.1111 25.2938 18.0107 23.7239C18.9103 22.1541 18.3812 20.1432 16.8113 19.2436C15.2414 18.344 13.2306 18.8732 12.331 20.4431L1.88873 38.5583C0.989148 40.1282 1.51832 42.139 3.08818 43.0386C4.65805 43.9382 6.66889 43.409 7.56847 41.8391L10.6729 36.4769C17.2699 38.5583 24.6606 35.8595 28.259 29.6153C31.8573 23.3888 30.4991 15.6453 25.4015 10.9533Z" fill="#636363"/>
<path d="M39.2827 14.8515H44.3627C47.3084 14.8515 49.7426 16.3156 49.7426 19.7023C49.7426 23.0889 47.3084 24.5706 44.3627 24.5706H42.2637V29.3155H39.2827V14.8515ZM44.2745 21.96C45.7386 21.96 46.6734 21.3074 46.6734 19.7023C46.6734 18.0795 45.7033 17.4797 44.2745 17.4797H42.2637V21.96H44.2745Z" fill="#636363"/>
<path d="M54.0991 14.8515H63.6594V17.4621H57.0801V20.7782H62.8833V23.3359H57.0801V26.6873H63.9593V29.2978H54.0991V14.8515Z" fill="#636363"/>
<path d="M68.9512 14.8515H71.9145V26.6873H78.4586V29.2978H68.9512V14.8515V14.8515Z" fill="#636363"/>
<path d="M81.7749 22.0835C81.7749 17.8149 85.091 14.6752 89.2538 14.6752C93.4166 14.6752 96.7327 17.8149 96.7327 22.0835C96.7327 26.3521 93.4166 29.4919 89.2538 29.4919C85.091 29.4919 81.7749 26.3521 81.7749 22.0835ZM93.6635 22.0835C93.6635 19.3848 91.882 17.321 89.2538 17.321C86.6256 17.321 84.8441 19.3848 84.8441 22.0835C84.8441 24.7823 86.6256 26.846 89.2538 26.846C91.882 26.846 93.6635 24.7823 93.6635 22.0835Z" fill="#636363"/>
<path d="M104.053 17.4621H99.9253V14.8515H111.144V17.4621H107.016V29.2978H104.035V17.4621H104.053Z" fill="#636363"/>
<path d="M114.319 22.0835C114.319 17.8149 117.635 14.6752 121.798 14.6752C125.961 14.6752 129.277 17.8149 129.277 22.0835C129.277 26.3521 125.961 29.4919 121.798 29.4919C117.635 29.4919 114.319 26.3521 114.319 22.0835ZM126.207 22.0835C126.207 19.3848 124.426 17.321 121.798 17.321C119.17 17.321 117.388 19.3848 117.388 22.0835C117.388 24.7823 119.17 26.846 121.798 26.846C124.426 26.846 126.207 24.7823 126.207 22.0835Z" fill="#636363"/>
<path d="M138.343 22.595C137.62 21.9071 136.614 20.6195 136.614 20.6195C136.614 20.6195 136.826 22.207 136.826 23.2477V29.2978H134.039V14.7281H134.339L141.624 21.572C142.329 22.2246 143.317 23.5475 143.317 23.5475C143.317 23.5475 143.123 21.9071 143.123 20.9193V14.8692H145.91V29.4389H145.61L138.343 22.595Z" fill="#636363"/>
</svg>
