<svg width="59" height="40" viewBox="0 0 59 40" fill="none" xmlns="http://www.w3.org/2000/svg">
<g clip-path="url(#clip0_3611_8755)">
<path fill-rule="evenodd" clip-rule="evenodd" d="M24.3682 4.36249C26.2107 2.44312 28.7776 1.25124 31.6151 1.25124C35.3869 1.25124 38.6788 3.35499 40.4313 6.47812C41.9993 5.7777 43.6977 5.41668 45.4151 5.41874C52.2188 5.41874 57.7338 10.9825 57.7338 17.8469C57.7338 24.7112 52.2188 30.275 45.4151 30.275C44.5832 30.275 43.7719 30.1919 42.9876 30.0337C41.4444 32.7856 38.5019 34.6456 35.1263 34.6456C33.7132 34.6456 32.3763 34.3206 31.1869 33.7387C29.6219 37.42 25.9763 40 21.7282 40C17.3044 40 13.5332 37.2 12.0863 33.2744C11.4416 33.4104 10.7846 33.4789 10.1257 33.4787C4.85757 33.4794 0.586941 29.1644 0.586941 23.8412C0.582988 22.1543 1.02127 20.4958 1.85811 19.031C2.69494 17.5663 3.90109 16.3464 5.35632 15.4931C4.75259 14.102 4.44197 12.6014 4.44382 11.085C4.44382 4.96249 9.41319 -7.71547e-06 15.5432 -7.71547e-06C17.2509 -0.00200008 18.9359 0.390706 20.4667 1.14745C21.9976 1.9042 23.3328 3.00451 24.3682 4.36249Z" fill="#636363"/>
<path fill-rule="evenodd" clip-rule="evenodd" d="M8.86441 20.7437L9.09566 20.1019C9.13254 19.9919 9.21566 20.0281 9.24941 20.0487C9.31379 20.0869 9.36004 20.1212 9.44316 20.17C10.1244 20.6006 10.7557 20.605 10.9525 20.605C11.4625 20.605 11.7788 20.335 11.7788 19.9706V19.9519C11.7788 19.5556 11.2913 19.4056 10.7282 19.2331L10.6032 19.1931C9.83004 18.9731 9.00316 18.655 9.00316 17.6762V17.6562C9.00316 16.7275 9.75254 16.0794 10.825 16.0794L10.9425 16.0781C11.5725 16.0781 12.1813 16.2612 12.6225 16.5287C12.6625 16.5537 12.7013 16.6 12.6788 16.6612L12.4413 17.3031C12.3994 17.4125 12.285 17.34 12.285 17.34C11.8247 17.1001 11.3153 16.9694 10.7963 16.9581C10.3413 16.9581 10.0488 17.1994 10.0488 17.5269V17.5475C10.0488 17.9294 10.55 18.0925 11.1313 18.2819L11.2313 18.3131C12.0019 18.5569 12.8244 18.8944 12.8244 19.8225V19.8419C12.8244 20.845 12.0957 21.4681 10.9238 21.4681C10.3482 21.4681 9.79754 21.3794 9.21504 21.07C9.10504 21.0062 8.99629 20.9512 8.88879 20.8731C8.87754 20.8569 8.82816 20.8375 8.86379 20.7437H8.86441ZM26.025 20.7437L26.2569 20.1019C26.2907 19.9969 26.3888 20.0356 26.41 20.0487C26.4738 20.0881 26.5213 20.1212 26.6038 20.17C27.2863 20.6006 27.9163 20.605 28.115 20.605C28.6232 20.605 28.94 20.335 28.94 19.9706V19.9519C28.94 19.5556 28.4532 19.4056 27.89 19.2331L27.765 19.1931C26.9907 18.9731 26.1638 18.655 26.1638 17.6762V17.6562C26.1638 16.7275 26.9138 16.0794 27.9863 16.0794L28.1032 16.0781C28.7332 16.0781 29.3425 16.2612 29.7844 16.5287C29.8232 16.5537 29.8625 16.6 29.8407 16.6612C29.8188 16.7181 29.6238 17.2431 29.6032 17.3031C29.56 17.4125 29.4469 17.34 29.4469 17.34C28.9864 17.1 28.4767 16.9693 27.9575 16.9581C27.5025 16.9581 27.21 17.1994 27.21 17.5269V17.5475C27.21 17.9294 27.7107 18.0925 28.2925 18.2819L28.3925 18.3131C29.1632 18.5569 29.985 18.8944 29.985 19.8225V19.8419C29.985 20.845 29.2569 21.4681 28.085 21.4681C27.5088 21.4681 26.9582 21.3794 26.3763 21.07C26.2663 21.0062 26.1575 20.9512 26.0494 20.8731C26.0382 20.8569 25.9888 20.8375 26.025 20.7437V20.7437ZM38.7188 17.7256C38.815 18.0481 38.8625 18.4025 38.8625 18.7769C38.8625 19.1519 38.815 19.505 38.7188 19.8275C38.6308 20.1385 38.4797 20.428 38.275 20.6781C38.0699 20.921 37.8127 21.1146 37.5225 21.2444C37.2225 21.3819 36.87 21.4506 36.4738 21.4506C36.0775 21.4506 35.7238 21.3819 35.425 21.2444C35.1348 21.1146 34.8776 20.921 34.6725 20.6781C34.468 20.428 34.3168 20.1388 34.2282 19.8281C34.1299 19.4865 34.0815 19.1324 34.0844 18.7769C34.0844 18.4019 34.1325 18.0481 34.2282 17.7256C34.3244 17.4006 34.4738 17.1144 34.6719 16.8756C34.8775 16.6317 35.1348 16.4366 35.425 16.3044C35.7244 16.1644 36.0763 16.0937 36.4738 16.0937C36.8713 16.0937 37.2232 16.1644 37.5225 16.3044C37.8213 16.4437 38.075 16.6356 38.275 16.8756C38.4738 17.1144 38.6238 17.4006 38.7188 17.7256ZM37.7413 18.7769C37.7413 18.21 37.6363 17.7644 37.4275 17.4519C37.2213 17.1419 36.9088 16.9919 36.4738 16.9919C36.0388 16.9919 35.7288 17.1419 35.525 17.4519C35.3207 17.7644 35.2163 18.21 35.2163 18.7769C35.2163 19.3431 35.3207 19.7919 35.5263 20.1069C35.7288 20.4206 36.0388 20.5725 36.4738 20.5725C36.9088 20.5725 37.2213 20.42 37.4275 20.1069C37.635 19.7919 37.7413 19.3431 37.7413 18.7769V18.7769ZM46.755 20.4206L46.995 21.0844C47.0263 21.1656 46.9557 21.2012 46.9557 21.2012C46.585 21.345 46.0707 21.4475 45.57 21.4475C44.7213 21.4475 44.0713 21.2031 43.6375 20.7206C43.2063 20.2394 42.9863 19.585 42.9863 18.7731C42.9863 18.3975 43.0407 18.0419 43.1469 17.72C43.2532 17.395 43.4125 17.1087 43.6225 16.87C43.8406 16.6246 44.1095 16.4296 44.4107 16.2987C44.7232 16.1594 45.0907 16.0894 45.5007 16.0894C45.7775 16.0894 46.0238 16.1062 46.235 16.1375C46.4607 16.1725 46.7613 16.2537 46.8882 16.3031C46.9113 16.3119 46.9757 16.3431 46.9494 16.4187C46.8569 16.6794 46.7938 16.8494 46.7082 17.0869C46.6707 17.1881 46.5944 17.1544 46.5944 17.1544C46.2725 17.0531 45.9638 17.0069 45.5607 17.0069C45.0763 17.0069 44.7125 17.1681 44.475 17.4837C44.235 17.8019 44.1007 18.2187 44.0988 18.7731C44.0969 19.3812 44.2494 19.8319 44.5194 20.1106C44.7888 20.3887 45.165 20.5294 45.6388 20.5294C45.8307 20.5294 46.0119 20.5169 46.175 20.4912C46.3363 20.4656 46.4875 20.4156 46.63 20.36C46.63 20.36 46.7219 20.3256 46.755 20.4206ZM51.7613 17.5412C51.9744 18.2875 51.8632 18.9319 51.8594 18.9675C51.8513 19.0525 51.7638 19.0537 51.7638 19.0537L48.4519 19.0512C48.4725 19.5544 48.5932 19.9106 48.8369 20.1525C49.0763 20.3894 49.4563 20.5412 49.9707 20.5419C50.7569 20.5437 51.0925 20.3856 51.3307 20.2975C51.3307 20.2975 51.4213 20.265 51.4557 20.355L51.6713 20.9619C51.715 21.0637 51.68 21.0994 51.6432 21.12C51.4357 21.2344 50.9325 21.4481 49.975 21.4506C49.5107 21.4525 49.1063 21.3862 48.7732 21.2569C48.4566 21.1396 48.1715 20.9507 47.94 20.705C47.7188 20.4639 47.5546 20.1762 47.4594 19.8631C47.3569 19.5201 47.3065 19.1636 47.31 18.8056C47.31 18.4306 47.3582 18.0744 47.455 17.7487C47.5519 17.4206 47.7025 17.1312 47.9032 16.8881C48.1111 16.64 48.3718 16.4414 48.6663 16.3069C48.97 16.1637 49.3463 16.0937 49.76 16.0937C50.1144 16.0937 50.4382 16.17 50.7075 16.2862C50.915 16.375 51.1238 16.5356 51.3375 16.7656C51.4725 16.9106 51.6782 17.2281 51.7613 17.5412V17.5412ZM48.4675 18.2331H50.83C50.8057 17.9294 50.7463 17.6569 50.61 17.4519C50.4025 17.1419 50.1163 16.9712 49.6819 16.9712C49.2469 16.9712 48.9382 17.1419 48.7338 17.4519C48.6 17.6569 48.5138 17.9181 48.4669 18.2331H48.4675ZM25.2332 17.5412C25.4457 18.2875 25.3363 18.9319 25.3325 18.9675C25.3238 19.0525 25.2363 19.0537 25.2363 19.0537L21.9238 19.0512C21.945 19.5544 22.065 19.9106 22.3094 20.1525C22.5488 20.3894 22.9282 20.5412 23.4425 20.5419C24.2288 20.5437 24.5657 20.3856 24.8032 20.2975C24.8032 20.2975 24.8938 20.265 24.9275 20.355L25.1438 20.9619C25.1875 21.0637 25.1525 21.0994 25.1163 21.12C24.9075 21.2344 24.4038 21.4481 23.4475 21.4506C22.9825 21.4525 22.5782 21.3862 22.2457 21.2569C21.929 21.1395 21.6437 20.9506 21.4119 20.705C21.1913 20.4637 21.0275 20.176 20.9325 19.8631C20.8293 19.5202 20.7785 19.1637 20.7819 18.8056C20.7819 18.4306 20.8307 18.0744 20.9269 17.7487C21.017 17.4346 21.1696 17.1418 21.3757 16.8881C21.5835 16.6402 21.844 16.4416 22.1382 16.3069C22.4432 16.1637 22.8194 16.0937 23.2319 16.0937C23.5579 16.093 23.8807 16.1585 24.1807 16.2862C24.3882 16.375 24.5969 16.5356 24.81 16.7656C24.945 16.9106 25.1507 17.2281 25.2332 17.5412V17.5412ZM21.9388 18.2331H24.3025C24.2775 17.9294 24.2182 17.6569 24.0825 17.4519C23.8763 17.1419 23.5888 16.9712 23.1544 16.9712C22.7194 16.9712 22.41 17.1419 22.2069 17.4519C22.0719 17.6569 21.9863 17.9181 21.9382 18.2331H21.9388ZM16.0975 18.075C16.0975 18.075 16.3588 18.0981 16.6438 18.1394V17.9994C16.6438 17.5575 16.5519 17.3494 16.3713 17.21C16.1863 17.0687 15.91 16.9956 15.5525 16.9956C15.5525 16.9956 14.7463 16.9856 14.1088 17.3319C14.0794 17.3494 14.055 17.3594 14.055 17.3594C14.055 17.3594 13.975 17.3875 13.9463 17.3056L13.7119 16.6756C13.6757 16.585 13.7413 16.5437 13.7413 16.5437C14.0394 16.3112 14.7619 16.1706 14.7619 16.1706C15.0552 16.1191 15.3523 16.0917 15.65 16.0887C16.3113 16.0887 16.8232 16.2425 17.1713 16.5469C17.52 16.8525 17.6975 17.345 17.6975 18.0087L17.6994 21.0387C17.6994 21.0387 17.7063 21.1262 17.6232 21.1462C17.6232 21.1462 17.5013 21.18 17.3919 21.2056C17.2813 21.2312 16.8825 21.3125 16.5569 21.3675C16.2244 21.4232 15.8878 21.4512 15.5507 21.4512C15.2288 21.4512 14.9338 21.4212 14.6738 21.3619C14.4315 21.3111 14.202 21.2116 13.9994 21.0694C13.8148 20.9353 13.6665 20.7572 13.5682 20.5512C13.4663 20.3431 13.415 20.0887 13.415 19.795C13.415 19.5069 13.4757 19.25 13.5925 19.0312C13.71 18.8137 13.8713 18.6294 14.0738 18.485C14.283 18.3377 14.5169 18.2291 14.7644 18.1644C15.0225 18.0956 15.2969 18.06 15.5807 18.06C15.7888 18.06 15.9625 18.0644 16.0975 18.075V18.075ZM14.7794 20.4025C14.7775 20.4019 15.0763 20.6369 15.7507 20.5956C16.2244 20.5669 16.6444 20.4769 16.6444 20.4769V18.9706C16.6444 18.9706 16.2207 18.9012 15.745 18.8944C15.0707 18.8862 14.7832 19.1344 14.785 19.1337C14.5863 19.275 14.4894 19.4844 14.4894 19.7744C14.4894 19.96 14.5225 20.105 14.5894 20.2062C14.6313 20.2731 14.6494 20.2981 14.7794 20.4025V20.4025ZM42.8138 16.3681C42.7825 16.4587 42.6219 16.9125 42.5638 17.0631C42.5425 17.1206 42.5075 17.16 42.4432 17.1531C42.4432 17.1531 42.2532 17.1094 42.0794 17.1094C41.96 17.1094 41.7894 17.1244 41.6357 17.1719C41.4815 17.2193 41.3411 17.3036 41.2269 17.4175C41.1057 17.5344 41.0075 17.6987 40.9363 17.905C40.8638 18.1125 40.8263 18.4425 40.8263 18.7737V21.2412C40.8264 21.2544 40.8238 21.2675 40.8189 21.2797C40.8139 21.2919 40.8065 21.303 40.7972 21.3124C40.7879 21.3217 40.7769 21.3291 40.7647 21.3342C40.7525 21.3393 40.7395 21.3419 40.7263 21.3419H39.8569C39.8436 21.342 39.8304 21.3396 39.8181 21.3346C39.8057 21.3297 39.7945 21.3224 39.785 21.3131C39.7754 21.3038 39.7678 21.2927 39.7626 21.2805C39.7574 21.2683 39.7546 21.2552 39.7544 21.2419V16.3012C39.7544 16.2456 39.795 16.2012 39.8507 16.2012H40.6988C40.755 16.2012 40.795 16.2456 40.795 16.3012V16.705C40.9219 16.535 41.1494 16.385 41.355 16.2925C41.5613 16.1987 41.7919 16.13 42.2088 16.155C42.4257 16.1681 42.7075 16.2275 42.7644 16.2494C42.7755 16.2538 42.7857 16.2605 42.7942 16.2689C42.8027 16.2773 42.8095 16.2873 42.8141 16.2984C42.8187 16.3094 42.821 16.3213 42.821 16.3333C42.8209 16.3453 42.8185 16.3571 42.8138 16.3681V16.3681ZM34.645 14.0787C34.6682 14.0881 34.7313 14.1187 34.7063 14.1937L34.4519 14.8894C34.4307 14.9419 34.4169 14.9731 34.3088 14.9406C34.1658 14.8956 34.0168 14.8725 33.8669 14.8719C33.7357 14.8719 33.6169 14.8887 33.5119 14.9237C33.4069 14.9574 33.3116 15.0162 33.2344 15.095C33.1317 15.1943 33.0523 15.3151 33.0019 15.4487C32.88 15.7987 32.8332 16.1719 32.8269 16.1956H33.8857C33.975 16.1956 34.0032 16.2369 33.9944 16.3025L33.8707 16.9912C33.8507 17.0912 33.76 17.0875 33.76 17.0875H32.6688L31.9232 21.31C31.8591 21.6887 31.7616 22.061 31.6319 22.4225C31.515 22.7281 31.3944 22.9512 31.2007 23.1644C31.0353 23.3551 30.825 23.5016 30.5888 23.5906C30.3594 23.675 30.0807 23.7181 29.7763 23.7181C29.6313 23.7181 29.475 23.715 29.2907 23.6712C29.1879 23.6478 29.0867 23.6181 28.9875 23.5825C28.9469 23.5681 28.9138 23.5162 28.9375 23.45C28.96 23.3844 29.1563 22.8475 29.1825 22.7769C29.2163 22.6919 29.3025 22.7244 29.3025 22.7244C29.3613 22.7494 29.4025 22.7656 29.4807 22.7812C29.56 22.7969 29.6663 22.8106 29.7469 22.8106C29.8913 22.8106 30.0225 22.7931 30.1369 22.7544C30.2744 22.71 30.3557 22.6294 30.4394 22.5219C30.5269 22.4087 30.5982 22.2556 30.6713 22.05C30.7444 21.8419 30.8113 21.5669 30.8688 21.2337L31.6113 17.0881H30.88C30.7925 17.0881 30.7625 17.0469 30.7725 16.9806L30.895 16.2919C30.9144 16.1919 31.0075 16.1956 31.0075 16.1956H31.7582L31.7988 15.9719C31.9113 15.3069 32.1344 14.8012 32.4644 14.4694C32.7963 14.135 33.2682 13.9662 33.8669 13.9662C34.0382 13.9662 34.1894 13.9775 34.3175 14.0006C34.4432 14.0244 34.5388 14.0462 34.645 14.0787V14.0787ZM19.8475 21.2412C19.8475 21.2975 19.8088 21.3419 19.7525 21.3419H18.8744C18.8182 21.3419 18.78 21.2969 18.78 21.2419V14.1712C18.78 14.1169 18.8188 14.0719 18.8738 14.0719H19.7525C19.8088 14.0719 19.8475 14.1169 19.8475 14.1719V21.2412V21.2412Z" fill="white"/>
</g>
<defs>
<clipPath id="clip0_3611_8755">
<rect width="57.5" height="40" fill="white" transform="translate(0.586914)"/>
</clipPath>
</defs>
</svg>
