<svg xmlns="http://www.w3.org/2000/svg" xmlns:xlink="http://www.w3.org/1999/xlink" width="160" zoomAndPan="magnify" viewBox="0 0 120 44.999999" height="60" preserveAspectRatio="xMidYMid meet" version="1.0"><defs><clipPath id="dc6c70c86d"><path d="M 27.472656 0 L 92 0 L 92 45 L 27.472656 45 Z M 27.472656 0 " clip-rule="nonzero"/></clipPath></defs><g clip-path="url(#dc6c70c86d)"><path fill="#636363" d="M 54.316406 4.90625 C 56.394531 2.75 59.292969 1.40625 62.496094 1.40625 C 66.753906 1.40625 70.46875 3.773438 72.449219 7.289062 C 74.21875 6.5 76.132812 6.09375 78.074219 6.097656 C 85.753906 6.097656 91.976562 12.355469 91.976562 20.078125 C 91.976562 27.800781 85.753906 34.058594 78.074219 34.058594 C 77.132812 34.058594 76.21875 33.964844 75.332031 33.789062 C 73.589844 36.882812 70.269531 38.976562 66.460938 38.976562 C 64.863281 38.976562 63.355469 38.609375 62.011719 37.957031 C 60.246094 42.097656 56.132812 45 51.335938 45 C 46.34375 45 42.085938 41.851562 40.453125 37.433594 C 39.726562 37.585938 38.984375 37.664062 38.238281 37.664062 C 32.292969 37.664062 27.472656 32.808594 27.472656 26.820312 C 27.46875 24.921875 27.964844 23.058594 28.90625 21.410156 C 29.851562 19.761719 31.214844 18.390625 32.855469 17.429688 C 32.175781 15.863281 31.824219 14.175781 31.828125 12.46875 C 31.828125 5.582031 37.4375 0 44.355469 0 C 46.28125 -0.00390625 48.183594 0.441406 49.914062 1.289062 C 51.640625 2.140625 53.148438 3.378906 54.316406 4.90625 Z M 54.316406 4.90625 " fill-opacity="1" fill-rule="evenodd"/></g><path fill="#ffffff" d="M 36.816406 23.335938 L 37.078125 22.613281 C 37.117188 22.492188 37.210938 22.53125 37.25 22.554688 C 37.324219 22.597656 37.375 22.636719 37.46875 22.691406 C 38.238281 23.175781 38.949219 23.179688 39.171875 23.179688 C 39.75 23.179688 40.105469 22.875 40.105469 22.46875 L 40.105469 22.445312 C 40.105469 22 39.554688 21.832031 38.917969 21.636719 L 38.777344 21.59375 C 37.90625 21.34375 36.972656 20.988281 36.972656 19.886719 L 36.972656 19.863281 C 36.972656 18.820312 37.820312 18.089844 39.027344 18.089844 L 39.160156 18.085938 C 39.871094 18.085938 40.558594 18.292969 41.058594 18.59375 C 41.101562 18.621094 41.148438 18.675781 41.121094 18.742188 L 40.855469 19.464844 C 40.804688 19.589844 40.675781 19.507812 40.675781 19.507812 C 40.15625 19.238281 39.582031 19.089844 38.996094 19.078125 C 38.484375 19.078125 38.152344 19.347656 38.152344 19.71875 L 38.152344 19.742188 C 38.152344 20.171875 38.71875 20.355469 39.375 20.566406 L 39.488281 20.601562 C 40.359375 20.875 41.285156 21.257812 41.285156 22.300781 L 41.285156 22.320312 C 41.285156 23.449219 40.464844 24.152344 39.140625 24.152344 C 38.492188 24.152344 37.871094 24.050781 37.210938 23.703125 C 37.085938 23.632812 36.964844 23.570312 36.84375 23.480469 C 36.832031 23.464844 36.773438 23.441406 36.816406 23.335938 Z M 56.1875 23.335938 L 56.449219 22.613281 C 56.484375 22.496094 56.597656 22.539062 56.621094 22.554688 C 56.691406 22.597656 56.746094 22.636719 56.839844 22.691406 C 57.609375 23.175781 58.320312 23.179688 58.546875 23.179688 C 59.121094 23.179688 59.476562 22.875 59.476562 22.46875 L 59.476562 22.445312 C 59.476562 22 58.925781 21.832031 58.292969 21.636719 L 58.152344 21.59375 C 57.277344 21.34375 56.34375 20.988281 56.34375 19.886719 L 56.34375 19.863281 C 56.34375 18.820312 57.191406 18.089844 58.398438 18.089844 L 58.53125 18.085938 C 59.242188 18.085938 59.929688 18.292969 60.429688 18.59375 C 60.472656 18.621094 60.519531 18.675781 60.492188 18.742188 C 60.46875 18.808594 60.25 19.398438 60.226562 19.464844 C 60.175781 19.589844 60.050781 19.507812 60.050781 19.507812 C 59.527344 19.238281 58.953125 19.089844 58.367188 19.078125 C 57.855469 19.078125 57.523438 19.347656 57.523438 19.71875 L 57.523438 19.742188 C 57.523438 20.171875 58.089844 20.355469 58.746094 20.566406 L 58.859375 20.601562 C 59.730469 20.875 60.65625 21.257812 60.65625 22.300781 L 60.65625 22.320312 C 60.65625 23.449219 59.835938 24.152344 58.511719 24.152344 C 57.859375 24.152344 57.238281 24.050781 56.582031 23.703125 C 56.457031 23.632812 56.335938 23.570312 56.214844 23.480469 C 56.203125 23.464844 56.144531 23.441406 56.1875 23.335938 Z M 70.515625 19.941406 C 70.625 20.304688 70.675781 20.703125 70.675781 21.125 C 70.675781 21.546875 70.625 21.941406 70.515625 22.304688 C 70.414062 22.65625 70.246094 22.980469 70.015625 23.261719 C 69.78125 23.535156 69.492188 23.753906 69.164062 23.898438 C 68.824219 24.054688 68.429688 24.132812 67.980469 24.132812 C 67.535156 24.132812 67.132812 24.054688 66.796875 23.898438 C 66.46875 23.753906 66.179688 23.535156 65.949219 23.261719 C 65.714844 22.980469 65.546875 22.65625 65.445312 22.304688 C 65.335938 21.921875 65.28125 21.523438 65.285156 21.125 C 65.285156 20.703125 65.335938 20.304688 65.445312 19.941406 C 65.554688 19.574219 65.722656 19.253906 65.945312 18.984375 C 66.179688 18.710938 66.46875 18.492188 66.796875 18.34375 C 67.132812 18.183594 67.53125 18.105469 67.980469 18.105469 C 68.429688 18.105469 68.828125 18.183594 69.164062 18.34375 C 69.5 18.5 69.789062 18.714844 70.015625 18.984375 C 70.238281 19.253906 70.40625 19.574219 70.515625 19.941406 Z M 69.410156 21.125 C 69.410156 20.484375 69.292969 19.984375 69.058594 19.632812 C 68.824219 19.285156 68.472656 19.117188 67.980469 19.117188 C 67.488281 19.117188 67.140625 19.285156 66.910156 19.632812 C 66.679688 19.984375 66.5625 20.484375 66.5625 21.125 C 66.5625 21.761719 66.679688 22.265625 66.910156 22.621094 C 67.140625 22.972656 67.488281 23.144531 67.980469 23.144531 C 68.472656 23.144531 68.824219 22.972656 69.058594 22.621094 C 69.292969 22.265625 69.410156 21.761719 69.410156 21.125 Z M 79.585938 22.972656 L 79.855469 23.71875 C 79.890625 23.8125 79.8125 23.851562 79.8125 23.851562 C 79.394531 24.011719 78.8125 24.128906 78.25 24.128906 C 77.289062 24.128906 76.554688 23.851562 76.066406 23.3125 C 75.578125 22.769531 75.332031 22.03125 75.332031 21.121094 C 75.332031 20.695312 75.394531 20.296875 75.511719 19.933594 C 75.632812 19.570312 75.8125 19.246094 76.050781 18.980469 C 76.296875 18.703125 76.597656 18.484375 76.941406 18.335938 C 77.292969 18.179688 77.707031 18.101562 78.167969 18.101562 C 78.480469 18.101562 78.761719 18.121094 79 18.15625 C 79.253906 18.195312 79.59375 18.285156 79.734375 18.339844 C 79.761719 18.351562 79.835938 18.386719 79.804688 18.472656 C 79.699219 18.765625 79.628906 18.957031 79.53125 19.222656 C 79.492188 19.335938 79.40625 19.296875 79.40625 19.296875 C 79.042969 19.183594 78.691406 19.132812 78.238281 19.132812 C 77.691406 19.132812 77.28125 19.3125 77.011719 19.667969 C 76.742188 20.027344 76.589844 20.496094 76.585938 21.121094 C 76.585938 21.804688 76.757812 22.3125 77.0625 22.625 C 77.367188 22.9375 77.789062 23.09375 78.324219 23.09375 C 78.542969 23.09375 78.746094 23.082031 78.929688 23.050781 C 79.113281 23.023438 79.285156 22.96875 79.445312 22.90625 C 79.445312 22.90625 79.546875 22.867188 79.585938 22.972656 Z M 85.238281 19.734375 C 85.476562 20.574219 85.351562 21.296875 85.347656 21.339844 C 85.339844 21.433594 85.238281 21.433594 85.238281 21.433594 L 81.5 21.433594 C 81.523438 22 81.660156 22.398438 81.9375 22.671875 C 82.207031 22.9375 82.636719 23.109375 83.214844 23.109375 C 84.101562 23.113281 84.480469 22.933594 84.75 22.835938 C 84.75 22.835938 84.851562 22.796875 84.890625 22.898438 L 85.136719 23.582031 C 85.183594 23.695312 85.144531 23.738281 85.101562 23.761719 C 84.867188 23.890625 84.300781 24.128906 83.21875 24.132812 C 82.695312 24.132812 82.238281 24.058594 81.863281 23.914062 C 81.507812 23.78125 81.183594 23.570312 80.921875 23.292969 C 80.671875 23.023438 80.488281 22.699219 80.378906 22.347656 C 80.265625 21.960938 80.207031 21.558594 80.210938 21.15625 C 80.210938 20.734375 80.265625 20.332031 80.375 19.96875 C 80.484375 19.597656 80.65625 19.273438 80.882812 19 C 81.117188 18.71875 81.410156 18.496094 81.742188 18.34375 C 82.085938 18.183594 82.511719 18.105469 82.976562 18.105469 C 83.378906 18.105469 83.742188 18.191406 84.046875 18.320312 C 84.28125 18.421875 84.515625 18.601562 84.757812 18.859375 C 84.910156 19.023438 85.144531 19.382812 85.238281 19.734375 Z M 81.519531 20.511719 L 84.183594 20.511719 C 84.15625 20.171875 84.089844 19.863281 83.9375 19.632812 C 83.703125 19.285156 83.378906 19.09375 82.890625 19.09375 C 82.398438 19.09375 82.050781 19.285156 81.820312 19.632812 C 81.667969 19.863281 81.570312 20.15625 81.519531 20.511719 Z M 55.292969 19.734375 C 55.53125 20.574219 55.410156 21.296875 55.40625 21.339844 C 55.394531 21.433594 55.296875 21.433594 55.296875 21.433594 L 51.558594 21.433594 C 51.582031 22 51.714844 22.398438 51.992188 22.671875 C 52.261719 22.9375 52.691406 23.109375 53.269531 23.109375 C 54.160156 23.113281 54.539062 22.933594 54.808594 22.835938 C 54.808594 22.835938 54.910156 22.796875 54.949219 22.898438 L 55.191406 23.582031 C 55.242188 23.695312 55.203125 23.738281 55.160156 23.761719 C 54.925781 23.890625 54.355469 24.128906 53.277344 24.132812 C 52.753906 24.132812 52.296875 24.058594 51.921875 23.914062 C 51.5625 23.78125 51.242188 23.570312 50.980469 23.292969 C 50.730469 23.023438 50.546875 22.699219 50.4375 22.347656 C 50.320312 21.960938 50.265625 21.558594 50.269531 21.15625 C 50.269531 20.734375 50.324219 20.332031 50.433594 19.96875 C 50.535156 19.613281 50.707031 19.285156 50.9375 19 C 51.171875 18.71875 51.46875 18.496094 51.800781 18.34375 C 52.144531 18.183594 52.566406 18.105469 53.035156 18.105469 C 53.402344 18.105469 53.765625 18.179688 54.105469 18.320312 C 54.339844 18.421875 54.574219 18.601562 54.816406 18.859375 C 54.96875 19.023438 55.199219 19.382812 55.292969 19.734375 Z M 51.574219 20.511719 L 54.242188 20.511719 C 54.214844 20.171875 54.148438 19.863281 53.992188 19.632812 C 53.761719 19.285156 53.4375 19.09375 52.945312 19.09375 C 52.457031 19.09375 52.105469 19.285156 51.875 19.632812 C 51.722656 19.863281 51.628906 20.15625 51.574219 20.511719 Z M 44.980469 20.335938 C 44.980469 20.335938 45.277344 20.359375 45.597656 20.40625 L 45.597656 20.25 C 45.597656 19.753906 45.492188 19.519531 45.289062 19.359375 C 45.082031 19.203125 44.769531 19.121094 44.367188 19.121094 C 44.367188 19.121094 43.457031 19.109375 42.734375 19.5 C 42.703125 19.519531 42.675781 19.53125 42.675781 19.53125 C 42.675781 19.53125 42.585938 19.5625 42.550781 19.46875 L 42.289062 18.761719 C 42.246094 18.65625 42.320312 18.613281 42.320312 18.613281 C 42.65625 18.351562 43.472656 18.191406 43.472656 18.191406 C 43.804688 18.132812 44.140625 18.101562 44.476562 18.101562 C 45.222656 18.101562 45.800781 18.273438 46.191406 18.617188 C 46.585938 18.960938 46.785156 19.511719 46.785156 20.261719 L 46.789062 23.667969 C 46.789062 23.667969 46.796875 23.765625 46.703125 23.789062 C 46.703125 23.789062 46.566406 23.828125 46.441406 23.855469 C 46.316406 23.886719 45.867188 23.976562 45.5 24.039062 C 45.125 24.101562 44.742188 24.132812 44.363281 24.132812 C 44 24.132812 43.667969 24.097656 43.375 24.03125 C 43.101562 23.976562 42.839844 23.863281 42.613281 23.703125 C 42.402344 23.550781 42.238281 23.351562 42.125 23.121094 C 42.011719 22.886719 41.953125 22.601562 41.953125 22.269531 C 41.953125 21.945312 42.019531 21.65625 42.152344 21.410156 C 42.285156 21.164062 42.46875 20.957031 42.695312 20.796875 C 42.933594 20.628906 43.195312 20.507812 43.476562 20.433594 C 43.765625 20.359375 44.078125 20.316406 44.398438 20.316406 C 44.632812 20.316406 44.828125 20.324219 44.980469 20.335938 Z M 43.492188 22.953125 C 43.492188 22.953125 43.828125 23.214844 44.589844 23.171875 C 45.125 23.136719 45.597656 23.035156 45.597656 23.035156 L 45.597656 21.34375 C 45.597656 21.34375 45.121094 21.265625 44.582031 21.257812 C 43.820312 21.246094 43.496094 21.527344 43.5 21.527344 C 43.273438 21.683594 43.164062 21.921875 43.164062 22.246094 C 43.164062 22.453125 43.203125 22.617188 43.277344 22.730469 C 43.324219 22.808594 43.347656 22.835938 43.492188 22.953125 Z M 75.136719 18.414062 C 75.101562 18.515625 74.921875 19.027344 74.855469 19.195312 C 74.832031 19.261719 74.792969 19.304688 74.71875 19.296875 C 74.71875 19.296875 74.503906 19.25 74.308594 19.25 C 74.171875 19.25 73.980469 19.265625 73.808594 19.320312 C 73.632812 19.371094 73.476562 19.464844 73.347656 19.59375 C 73.207031 19.726562 73.097656 19.910156 73.019531 20.144531 C 72.9375 20.375 72.894531 20.746094 72.894531 21.121094 L 72.894531 23.894531 C 72.894531 23.910156 72.890625 23.925781 72.886719 23.941406 C 72.878906 23.953125 72.871094 23.964844 72.859375 23.976562 C 72.851562 23.988281 72.835938 23.996094 72.824219 24 C 72.808594 24.007812 72.796875 24.007812 72.78125 24.007812 L 71.800781 24.007812 C 71.785156 24.007812 71.769531 24.007812 71.753906 24 C 71.742188 23.996094 71.730469 23.988281 71.71875 23.976562 C 71.707031 23.964844 71.699219 23.953125 71.691406 23.941406 C 71.6875 23.925781 71.683594 23.910156 71.683594 23.898438 L 71.683594 18.339844 C 71.683594 18.277344 71.730469 18.226562 71.792969 18.226562 L 72.75 18.226562 C 72.8125 18.226562 72.859375 18.277344 72.859375 18.339844 L 72.859375 18.792969 C 73 18.601562 73.257812 18.433594 73.492188 18.328125 C 73.722656 18.222656 73.984375 18.144531 74.453125 18.175781 C 74.699219 18.1875 75.015625 18.257812 75.082031 18.28125 C 75.09375 18.285156 75.105469 18.292969 75.113281 18.300781 C 75.125 18.3125 75.132812 18.324219 75.136719 18.335938 C 75.140625 18.347656 75.144531 18.363281 75.144531 18.375 C 75.144531 18.386719 75.140625 18.402344 75.136719 18.414062 Z M 65.917969 15.839844 C 65.941406 15.847656 66.015625 15.882812 65.984375 15.96875 L 65.699219 16.75 C 65.675781 16.808594 65.660156 16.84375 65.535156 16.808594 C 65.375 16.757812 65.207031 16.730469 65.039062 16.730469 C 64.890625 16.730469 64.757812 16.75 64.636719 16.789062 C 64.519531 16.828125 64.410156 16.894531 64.324219 16.980469 C 64.207031 17.09375 64.117188 17.230469 64.0625 17.378906 C 63.925781 17.773438 63.871094 18.195312 63.863281 18.21875 L 65.058594 18.21875 C 65.160156 18.21875 65.191406 18.265625 65.183594 18.339844 L 65.042969 19.113281 C 65.019531 19.226562 64.917969 19.222656 64.917969 19.222656 L 63.6875 19.222656 L 62.84375 23.972656 C 62.773438 24.398438 62.660156 24.820312 62.515625 25.226562 C 62.382812 25.570312 62.246094 25.820312 62.027344 26.058594 C 61.84375 26.273438 61.605469 26.4375 61.335938 26.539062 C 61.078125 26.632812 60.765625 26.683594 60.421875 26.683594 C 60.257812 26.683594 60.082031 26.679688 59.871094 26.628906 C 59.757812 26.605469 59.640625 26.570312 59.53125 26.53125 C 59.484375 26.515625 59.445312 26.457031 59.472656 26.382812 C 59.5 26.308594 59.722656 25.703125 59.75 25.625 C 59.789062 25.527344 59.886719 25.566406 59.886719 25.566406 C 59.953125 25.59375 60 25.609375 60.085938 25.628906 C 60.175781 25.648438 60.296875 25.660156 60.386719 25.660156 C 60.550781 25.660156 60.699219 25.640625 60.828125 25.597656 C 60.984375 25.546875 61.074219 25.457031 61.167969 25.335938 C 61.269531 25.210938 61.347656 25.039062 61.429688 24.804688 C 61.511719 24.570312 61.589844 24.261719 61.652344 23.886719 L 62.492188 19.222656 L 61.667969 19.222656 C 61.566406 19.222656 61.535156 19.179688 61.546875 19.101562 L 61.683594 18.328125 C 61.707031 18.214844 61.808594 18.21875 61.808594 18.21875 L 62.65625 18.21875 L 62.703125 17.96875 C 62.832031 17.21875 63.082031 16.652344 63.453125 16.277344 C 63.828125 15.902344 64.363281 15.710938 65.039062 15.710938 C 65.230469 15.710938 65.402344 15.726562 65.546875 15.75 C 65.6875 15.777344 65.796875 15.800781 65.917969 15.839844 Z M 49.214844 23.894531 C 49.214844 23.960938 49.167969 24.007812 49.105469 24.007812 L 48.113281 24.007812 C 48.050781 24.007812 48.007812 23.960938 48.007812 23.898438 L 48.007812 15.941406 C 48.007812 15.882812 48.050781 15.832031 48.113281 15.832031 L 49.105469 15.832031 C 49.167969 15.832031 49.214844 15.882812 49.214844 15.945312 Z M 49.214844 23.894531 " fill-opacity="1" fill-rule="evenodd"/></svg>