<svg width="447" height="128" viewBox="0 0 447 128" fill="none" xmlns="http://www.w3.org/2000/svg">
<g clip-path="url(#clip0_3611_8772)">
<path d="M154.447 71.0946C150.647 68.9946 148.647 67.2946 148.647 64.8946C148.647 61.7946 151.347 59.8946 155.647 59.8946C160.647 59.8946 165.047 61.9946 165.047 61.9946L168.547 51.2946C168.547 51.2946 165.347 48.7946 155.847 48.7946C142.647 48.7946 133.447 56.3946 133.447 66.9946C133.447 72.9946 137.747 77.5946 143.447 80.8946C148.047 83.4946 149.647 85.3946 149.647 88.0946C149.647 90.9946 147.347 93.2946 143.047 93.2946C136.647 93.2946 130.647 89.9946 130.647 89.9946L126.947 100.695C126.947 100.695 132.547 104.395 141.847 104.395C155.447 104.395 165.147 97.6946 165.147 85.6946C165.347 79.0946 160.347 74.4946 154.447 71.0946Z" fill="#636363"/>
<path d="M208.647 48.5946C201.947 48.5946 196.747 51.7946 192.647 56.5946L192.447 56.4946L198.247 26.0946H183.047L168.347 103.395H183.447L188.447 76.9946C190.447 66.9946 195.547 60.8946 200.347 60.8946C203.747 60.8946 205.047 63.1946 205.047 66.4946C205.047 68.5946 204.847 71.0946 204.347 73.1946L198.647 103.495H213.747L219.647 72.2946C220.347 68.9946 220.747 65.0946 220.747 62.3946C220.947 53.6946 216.547 48.5946 208.647 48.5946Z" fill="#636363"/>
<path d="M255.147 48.5946C236.947 48.5946 224.847 64.9946 224.847 83.2946C224.847 94.9946 232.047 104.495 245.647 104.495C263.547 104.495 275.547 88.4946 275.547 69.7946C275.647 58.8946 269.347 48.5946 255.147 48.5946ZM247.747 92.7946C242.547 92.7946 240.447 88.3946 240.447 82.8946C240.447 74.1946 244.947 60.0946 253.147 60.0946C258.547 60.0946 260.247 64.6946 260.247 69.1946C260.247 78.5946 255.747 92.7946 247.747 92.7946Z" fill="#636363"/>
<path d="M314.347 48.5946C304.147 48.5946 298.347 57.5946 298.347 57.5946H298.147L299.047 49.4946H285.647C284.947 54.9946 283.747 63.2946 282.547 69.5946L272.047 124.795H287.147L291.347 102.395H291.647C291.647 102.395 294.747 104.395 300.547 104.395C318.347 104.395 329.947 86.1946 329.947 67.7946C329.947 57.6946 325.447 48.5946 314.347 48.5946ZM299.947 93.0946C296.047 93.0946 293.747 90.8946 293.747 90.8946L296.247 76.7946C298.047 67.3946 302.947 61.0946 308.147 61.0946C312.747 61.0946 314.147 65.3946 314.147 69.3946C314.147 79.0946 308.347 93.0946 299.947 93.0946Z" fill="#636363"/>
<path d="M351.547 26.8946C346.747 26.8946 342.847 30.6946 342.847 35.6946C342.847 40.1946 345.647 43.2946 349.947 43.2946H350.147C354.847 43.2946 358.947 40.0946 359.047 34.4946C359.147 29.9946 356.147 26.8946 351.547 26.8946Z" fill="#636363"/>
<path d="M330.347 103.395H345.547L355.847 49.7946H340.547L330.347 103.395Z" fill="#636363"/>
<path d="M394.247 49.6946H383.747L384.247 47.1946C385.147 41.9946 388.147 37.3946 393.247 37.3946C395.947 37.3946 398.047 38.1946 398.047 38.1946L401.047 26.3946C401.047 26.3946 398.447 25.0946 392.847 25.0946C387.447 25.0946 382.147 26.5946 378.047 30.0946C372.847 34.4946 370.447 40.7946 369.247 47.1946L368.847 49.6946H361.847L359.647 61.0946H366.647L358.647 103.395H373.747L381.747 61.0946H392.147L394.247 49.6946Z" fill="#636363"/>
<path d="M430.647 49.7946C430.647 49.7946 421.147 73.5946 416.947 86.5946H416.747C416.447 82.3946 413.047 49.7946 413.047 49.7946H397.147L406.247 98.9946C406.447 100.095 406.347 100.795 405.947 101.495C404.147 104.895 401.247 108.195 397.747 110.595C394.947 112.695 391.747 113.995 389.247 114.895L393.447 127.695C396.547 126.995 402.847 124.495 408.247 119.495C415.147 112.995 421.547 103.095 428.047 89.4946L446.547 49.7946H430.647V49.7946Z" fill="#636363"/>
<path d="M74.8467 14.9946C74.8467 14.9946 73.4467 15.3946 71.1467 16.0946C70.7467 14.7946 70.1467 13.2946 69.3467 11.6946C66.7467 6.69458 62.8467 3.99458 58.2467 3.99458C57.9467 3.99458 57.6467 3.99458 57.2467 4.09458C57.1467 3.89458 56.9467 3.79458 56.8467 3.59458C54.8467 1.39458 52.2467 0.394581 49.1467 0.494581C43.1467 0.694581 37.1467 4.99458 32.3467 12.6946C28.9467 18.0946 26.3467 24.8946 25.6467 30.1946C18.7467 32.2946 13.9467 33.7946 13.8467 33.8946C10.3467 34.9946 10.2467 35.0946 9.84668 38.3946C9.54668 40.8946 0.34668 111.295 0.34668 111.295L75.9467 124.395V14.8946C75.3467 14.8946 75.0467 14.9946 74.8467 14.9946ZM57.3467 20.3946C53.3467 21.5946 48.9467 22.9946 44.6467 24.2946C45.8467 19.5946 48.2467 14.8946 51.0467 11.7946C52.1467 10.6946 53.6467 9.39458 55.3467 8.59458C57.0467 12.1946 57.4467 17.0946 57.3467 20.3946ZM49.1467 4.59458C50.5467 4.59458 51.7467 4.89458 52.7467 5.49458C51.1467 6.29458 49.5467 7.59458 48.0467 9.09458C44.2467 13.1946 41.3467 19.5946 40.1467 25.6946C36.5467 26.7946 32.9467 27.8946 29.6467 28.8946C31.8467 19.2946 39.9467 4.79458 49.1467 4.59458ZM37.5467 59.5946C37.9467 65.9946 54.8467 67.3946 55.8467 82.4946C56.5467 94.3946 49.5467 102.495 39.4467 103.095C27.2467 103.895 20.5467 96.6946 20.5467 96.6946L23.1467 85.6946C23.1467 85.6946 29.8467 90.7946 35.2467 90.3946C38.7467 90.1946 40.0467 87.2946 39.9467 85.2946C39.4467 76.8946 25.6467 77.3946 24.7467 63.5946C23.9467 51.9946 31.5467 40.2946 48.3467 39.1946C54.8467 38.7946 58.1467 40.3946 58.1467 40.3946L54.3467 54.7946C54.3467 54.7946 50.0467 52.7946 44.9467 53.1946C37.5467 53.6946 37.4467 58.3946 37.5467 59.5946ZM61.3467 19.1946C61.3467 16.1946 60.9467 11.8946 59.5467 8.29458C64.1467 9.19458 66.3467 14.2946 67.3467 17.3946C65.5467 17.8946 63.5467 18.4946 61.3467 19.1946Z" fill="#636363"/>
<path d="M78.2466 124.195L109.647 116.395C109.647 116.395 96.1466 25.0946 96.0466 24.4946C95.9466 23.8946 95.4466 23.4946 94.9466 23.4946C94.4466 23.4946 85.6466 23.2946 85.6466 23.2946C85.6466 23.2946 80.2466 18.0946 78.2466 16.0946V124.195Z" fill="#636363"/>
</g>
<defs>
<clipPath id="clip0_3611_8772">
<rect width="446.3" height="127.5" fill="white" transform="translate(0.046875 0.19458)"/>
</clipPath>
</defs>
</svg>
