<svg xmlns="http://www.w3.org/2000/svg" xmlns:xlink="http://www.w3.org/1999/xlink" width="160" zoomAndPan="magnify" viewBox="0 0 120 44.999999" height="60" preserveAspectRatio="xMidYMid meet" version="1.0"><defs><clipPath id="ba0595c34a"><path d="M 72 18 L 89 18 L 89 39.789062 L 72 39.789062 Z M 72 18 " clip-rule="nonzero"/></clipPath><clipPath id="c0bcbf58b1"><path d="M 104 18 L 119.636719 18 L 119.636719 39.789062 L 104 39.789062 Z M 104 18 " clip-rule="nonzero"/></clipPath><clipPath id="704f425c92"><path d="M 0.203125 5.425781 L 21 5.425781 L 21 39 L 0.203125 39 Z M 0.203125 5.425781 " clip-rule="nonzero"/></clipPath></defs><path fill="#636363" d="M 41.519531 24.535156 C 40.503906 23.96875 39.96875 23.511719 39.96875 22.863281 C 39.96875 22.027344 40.691406 21.515625 41.84375 21.515625 C 43.179688 21.515625 44.359375 22.082031 44.359375 22.082031 L 45.292969 19.199219 C 45.292969 19.199219 44.4375 18.523438 41.894531 18.523438 C 38.363281 18.523438 35.902344 20.574219 35.902344 23.429688 C 35.902344 25.046875 37.050781 26.285156 38.578125 27.175781 C 39.808594 27.878906 40.234375 28.390625 40.234375 29.117188 C 40.234375 29.898438 39.621094 30.519531 38.46875 30.519531 C 36.757812 30.519531 35.152344 29.628906 35.152344 29.628906 L 34.160156 32.511719 C 34.160156 32.511719 35.660156 33.511719 38.148438 33.511719 C 41.789062 33.511719 44.382812 31.703125 44.382812 28.46875 C 44.4375 26.691406 43.101562 25.453125 41.519531 24.535156 Z M 41.519531 24.535156 " fill-opacity="1" fill-rule="nonzero"/><path fill="#636363" d="M 56.023438 18.46875 C 54.230469 18.46875 52.839844 19.332031 51.742188 20.625 L 51.691406 20.601562 L 53.242188 12.40625 L 49.175781 12.40625 L 45.242188 33.242188 L 49.28125 33.242188 L 50.621094 26.125 C 51.15625 23.429688 52.519531 21.785156 53.804688 21.785156 C 54.714844 21.785156 55.0625 22.40625 55.0625 23.296875 C 55.0625 23.859375 55.007812 24.535156 54.875 25.101562 L 53.347656 33.269531 L 57.390625 33.269531 L 58.96875 24.859375 C 59.15625 23.96875 59.261719 22.917969 59.261719 22.191406 C 59.316406 19.84375 58.140625 18.46875 56.023438 18.46875 Z M 56.023438 18.46875 " fill-opacity="1" fill-rule="nonzero"/><path fill="#636363" d="M 68.46875 18.46875 C 63.597656 18.46875 60.359375 22.890625 60.359375 27.824219 C 60.359375 30.976562 62.289062 33.539062 65.925781 33.539062 C 70.71875 33.539062 73.929688 29.226562 73.929688 24.183594 C 73.953125 21.246094 72.269531 18.46875 68.46875 18.46875 Z M 66.488281 30.382812 C 65.097656 30.382812 64.535156 29.199219 64.535156 27.714844 C 64.535156 25.371094 65.738281 21.570312 67.933594 21.570312 C 69.378906 21.570312 69.832031 22.808594 69.832031 24.023438 C 69.832031 26.554688 68.628906 30.382812 66.488281 30.382812 Z M 66.488281 30.382812 " fill-opacity="1" fill-rule="nonzero"/><g clip-path="url(#ba0595c34a)"><path fill="#636363" d="M 84.3125 18.46875 C 81.582031 18.46875 80.03125 20.894531 80.03125 20.894531 L 79.976562 20.894531 L 80.21875 18.714844 L 76.632812 18.714844 C 76.445312 20.195312 76.121094 22.433594 75.800781 24.128906 L 72.992188 39.007812 L 77.03125 39.007812 L 78.15625 32.972656 L 78.238281 32.972656 C 78.238281 32.972656 79.066406 33.511719 80.617188 33.511719 C 85.382812 33.511719 88.484375 28.605469 88.484375 23.644531 C 88.484375 20.921875 87.28125 18.46875 84.3125 18.46875 Z M 80.457031 30.464844 C 79.414062 30.464844 78.796875 29.871094 78.796875 29.871094 L 79.46875 26.070312 C 79.949219 23.539062 81.261719 21.839844 82.652344 21.839844 C 83.882812 21.839844 84.257812 23 84.257812 24.078125 C 84.257812 26.691406 82.707031 30.464844 80.457031 30.464844 Z M 80.457031 30.464844 " fill-opacity="1" fill-rule="nonzero"/></g><path fill="#636363" d="M 94.265625 12.621094 C 92.980469 12.621094 91.9375 13.644531 91.9375 14.992188 C 91.9375 16.207031 92.6875 17.042969 93.839844 17.042969 L 93.890625 17.042969 C 95.148438 17.042969 96.246094 16.179688 96.273438 14.671875 C 96.300781 13.457031 95.496094 12.621094 94.265625 12.621094 Z M 94.265625 12.621094 " fill-opacity="1" fill-rule="nonzero"/><path fill="#636363" d="M 88.59375 33.242188 L 92.660156 33.242188 L 95.417969 18.792969 L 91.324219 18.792969 Z M 88.59375 33.242188 " fill-opacity="1" fill-rule="nonzero"/><path fill="#636363" d="M 105.695312 18.765625 L 102.882812 18.765625 L 103.015625 18.09375 C 103.257812 16.691406 104.0625 15.453125 105.425781 15.453125 C 106.148438 15.453125 106.710938 15.667969 106.710938 15.667969 L 107.511719 12.488281 C 107.511719 12.488281 106.816406 12.136719 105.320312 12.136719 C 103.875 12.136719 102.457031 12.539062 101.359375 13.484375 C 99.964844 14.671875 99.324219 16.367188 99.003906 18.09375 L 98.894531 18.765625 L 97.023438 18.765625 L 96.433594 21.839844 L 98.308594 21.839844 L 96.167969 33.242188 L 100.207031 33.242188 L 102.347656 21.839844 L 105.132812 21.839844 Z M 105.695312 18.765625 " fill-opacity="1" fill-rule="nonzero"/><g clip-path="url(#c0bcbf58b1)"><path fill="#636363" d="M 115.433594 18.792969 C 115.433594 18.792969 112.890625 25.207031 111.769531 28.710938 L 111.714844 28.710938 C 111.632812 27.582031 110.722656 18.792969 110.722656 18.792969 L 106.46875 18.792969 L 108.90625 32.054688 C 108.957031 32.351562 108.929688 32.539062 108.824219 32.730469 C 108.34375 33.644531 107.566406 34.535156 106.628906 35.179688 C 105.878906 35.746094 105.023438 36.097656 104.355469 36.339844 L 105.480469 39.789062 C 106.308594 39.601562 107.996094 38.929688 109.441406 37.582031 C 111.285156 35.828125 113 33.160156 114.738281 29.496094 L 119.6875 18.792969 Z M 115.433594 18.792969 " fill-opacity="1" fill-rule="nonzero"/></g><g clip-path="url(#704f425c92)"><path fill="#636363" d="M 20.21875 9.414062 C 20.21875 9.414062 19.84375 9.523438 19.230469 9.710938 C 19.121094 9.359375 18.960938 8.957031 18.746094 8.523438 C 18.050781 7.175781 17.007812 6.449219 15.777344 6.449219 C 15.695312 6.449219 15.617188 6.449219 15.507812 6.476562 C 15.480469 6.421875 15.429688 6.394531 15.402344 6.339844 C 14.867188 5.75 14.171875 5.480469 13.339844 5.507812 C 11.734375 5.558594 10.128906 6.71875 8.847656 8.792969 C 7.9375 10.25 7.238281 12.082031 7.054688 13.511719 C 5.207031 14.078125 3.921875 14.480469 3.894531 14.507812 C 2.957031 14.804688 2.929688 14.832031 2.824219 15.722656 C 2.746094 16.394531 0.28125 35.371094 0.28125 35.371094 L 20.511719 38.902344 L 20.511719 9.386719 C 20.351562 9.386719 20.273438 9.414062 20.21875 9.414062 Z M 15.535156 10.871094 C 14.464844 11.191406 13.289062 11.570312 12.136719 11.921875 C 12.457031 10.652344 13.101562 9.386719 13.851562 8.550781 C 14.144531 8.253906 14.546875 7.90625 15 7.6875 C 15.457031 8.660156 15.5625 9.980469 15.535156 10.871094 Z M 13.339844 6.609375 C 13.714844 6.609375 14.039062 6.691406 14.304688 6.855469 C 13.875 7.070312 13.449219 7.417969 13.046875 7.824219 C 12.03125 8.929688 11.253906 10.652344 10.933594 12.296875 C 9.96875 12.59375 9.007812 12.890625 8.125 13.160156 C 8.710938 10.574219 10.878906 6.664062 13.339844 6.609375 Z M 10.238281 21.433594 C 10.34375 23.160156 14.867188 23.539062 15.132812 27.609375 C 15.320312 30.816406 13.449219 33 10.746094 33.160156 C 7.480469 33.375 5.6875 31.433594 5.6875 31.433594 L 6.382812 28.46875 C 6.382812 28.46875 8.175781 29.84375 9.621094 29.738281 C 10.558594 29.683594 10.90625 28.902344 10.878906 28.363281 C 10.746094 26.097656 7.054688 26.234375 6.8125 22.511719 C 6.597656 19.386719 8.632812 16.234375 13.128906 15.9375 C 14.867188 15.828125 15.75 16.261719 15.75 16.261719 L 14.734375 20.140625 C 14.734375 20.140625 13.582031 19.601562 12.21875 19.710938 C 10.238281 19.84375 10.210938 21.113281 10.238281 21.433594 Z M 16.605469 10.546875 C 16.605469 9.738281 16.5 8.578125 16.125 7.609375 C 17.355469 7.851562 17.945312 9.226562 18.210938 10.0625 C 17.730469 10.195312 17.195312 10.359375 16.605469 10.546875 Z M 16.605469 10.546875 " fill-opacity="1" fill-rule="nonzero"/></g><path fill="#636363" d="M 21.128906 38.847656 L 29.53125 36.746094 C 29.53125 36.746094 25.917969 12.136719 25.890625 11.976562 C 25.867188 11.8125 25.730469 11.707031 25.597656 11.707031 C 25.464844 11.707031 23.109375 11.652344 23.109375 11.652344 C 23.109375 11.652344 21.664062 10.25 21.128906 9.710938 Z M 21.128906 38.847656 " fill-opacity="1" fill-rule="nonzero"/></svg>