<svg xmlns="http://www.w3.org/2000/svg" xmlns:xlink="http://www.w3.org/1999/xlink" width="160" zoomAndPan="magnify" viewBox="0 0 120 44.999999" height="60" preserveAspectRatio="xMidYMid meet" version="1.0"><path fill="#636363" d="M 102.292969 20.808594 L 102.292969 30.125 L 105.292969 30.125 L 105.292969 23.914062 L 116.261719 23.914062 L 116.261719 30.125 L 119.257812 30.125 L 119.257812 20.808594 Z M 104.949219 17.789062 L 116.515625 17.789062 C 118.144531 17.492188 119.300781 16.042969 119.644531 14.683594 L 101.820312 14.683594 C 102.164062 16.042969 103.363281 17.449219 104.949219 17.789062 Z M 93.167969 30.125 C 94.667969 29.484375 95.480469 28.378906 95.824219 27.105469 L 82.328125 27.105469 L 82.328125 14.726562 L 79.285156 14.726562 L 79.285156 30.125 Z M 56.789062 17.746094 L 67.5 17.746094 C 69.128906 17.277344 70.457031 16.042969 70.800781 14.726562 L 53.832031 14.726562 L 53.832031 23.828125 L 67.714844 23.828125 L 67.714844 27.019531 L 56.832031 27.019531 C 55.117188 27.488281 53.660156 28.636719 52.933594 30.125 L 70.714844 30.125 L 70.714844 20.808594 L 56.832031 20.808594 Z M 30.398438 17.789062 L 41.964844 17.789062 C 43.59375 17.492188 44.792969 16.042969 45.09375 14.683594 L 27.226562 14.683594 C 27.570312 16.042969 28.769531 17.449219 30.398438 17.789062 Z M 30.398438 23.871094 L 41.964844 23.871094 C 43.59375 23.574219 44.792969 22.128906 45.09375 20.765625 L 27.226562 20.765625 C 27.570312 22.128906 28.769531 23.53125 30.398438 23.871094 Z M 30.398438 30.125 L 41.964844 30.125 C 43.59375 29.828125 44.792969 28.378906 45.09375 27.019531 L 27.226562 27.019531 C 27.570312 28.378906 28.769531 29.828125 30.398438 30.125 Z M 30.398438 30.125 " fill-opacity="1" fill-rule="nonzero"/><path fill="#636363" d="M 0.277344 14.726562 C 0.617188 16.085938 1.816406 17.449219 3.402344 17.789062 L 8.289062 17.789062 L 8.546875 17.875 L 8.546875 30.082031 L 11.585938 30.082031 L 11.585938 17.875 L 11.84375 17.789062 L 16.730469 17.789062 C 18.355469 17.363281 19.515625 16.085938 19.855469 14.726562 L 19.855469 14.683594 Z M 0.277344 14.726562 " fill-opacity="1" fill-rule="nonzero"/></svg>