<svg width="192" height="34" viewBox="0 0 192 34" fill="none" xmlns="http://www.w3.org/2000/svg">
<path d="M163.98 14.3937V29.4763H168.801V19.4212H186.432V29.4763H191.253V14.3937H163.98ZM168.25 9.50387H186.845C189.463 9.02177 191.322 6.68018 191.873 4.47632H163.223C163.774 6.68018 165.702 8.9529 168.25 9.50387ZM149.311 29.4763C151.722 28.4433 153.03 26.6526 153.581 24.5865H131.887V4.54519H126.997V29.4763H149.311ZM90.84 9.435H108.058C110.675 8.67742 112.81 6.68018 113.361 4.54519H86.0879V19.2835H108.402V24.4488H90.9089C88.154 25.2063 85.8124 27.0659 84.6416 29.4763H113.223V14.3937H90.9089L90.84 9.435ZM48.4158 9.50387H67.0108C69.6279 9.02177 71.5562 6.68018 72.0383 4.47632H43.3193C43.8703 6.68018 45.7987 8.9529 48.4158 9.50387ZM48.4158 19.3524H67.0108C69.6279 18.8703 71.5562 16.5287 72.0383 14.3248H43.3193C43.8703 16.5287 45.7987 18.8014 48.4158 19.3524ZM48.4158 29.4763H67.0108C69.6279 28.9942 71.5562 26.6526 72.0383 24.4488H43.3193C43.8703 26.6526 45.7987 28.9942 48.4158 29.4763Z" fill="#636363"/>
<path d="M0 4.54519C0.550964 6.74905 2.47934 8.9529 5.02755 9.50387H12.8788L13.292 9.64161V29.4074H18.1818V9.64161L18.595 9.50387H26.4463C29.0634 8.81516 30.9229 6.74905 31.4738 4.54519V4.47632L0 4.54519Z" fill="#636363"/>
</svg>
