<svg width="223" height="78" viewBox="0 0 223 78" fill="none" xmlns="http://www.w3.org/2000/svg">
<path d="M12.8299 55.7066C13.7723 58.2264 15.077 60.3809 16.7443 62.1701C18.4115 63.9595 20.3867 65.3288 22.6699 66.2783C24.9533 67.2278 27.4359 67.7024 30.1179 67.7024C32.7275 67.7024 35.1738 67.2094 37.4572 66.2233C39.7406 65.2372 41.7339 63.8497 43.4372 62.0605C45.1405 60.2711 46.4635 58.135 47.4059 55.6518C48.3483 53.1686 48.8193 50.3936 48.8193 47.326V0H60.2358V76.6854H48.9281V69.5646C46.3911 72.2667 43.4009 74.3482 39.9578 75.8092C36.5146 77.2696 32.8 78 28.8132 78C24.7538 78 20.9665 77.2878 17.4509 75.8637C13.9354 74.4396 10.8908 72.4131 8.31776 69.7837C5.7447 67.1544 3.71488 63.9961 2.22902 60.3077C0.742927 56.6195 0 52.5115 0 47.9831V0H11.4165V47.326C11.4165 50.3936 11.8876 53.1868 12.8299 55.7066Z" fill="#636363"/>
<path d="M79.9146 0V27.9354C82.4516 25.3792 85.3875 23.3527 88.7217 21.8554C92.056 20.358 95.6804 19.6095 99.5945 19.6095C103.654 19.6095 107.459 20.3762 111.011 21.9099C114.563 23.4436 117.643 25.5251 120.253 28.1545C122.862 30.7838 124.928 33.8876 126.451 37.4662C127.973 41.045 128.734 44.8428 128.734 48.8597C128.734 52.8763 127.973 56.6559 126.451 60.1979C124.928 63.7401 122.862 66.8259 120.253 69.4548C117.643 72.0841 114.563 74.1657 111.011 75.6993C107.459 77.233 103.654 77.9998 99.5945 77.9998C95.6802 77.9998 92.038 77.2512 88.6674 75.7539C85.2968 74.2568 82.3429 72.2301 79.8059 69.6739V76.6852H68.9331V0H79.9146ZM81.1649 56.4185C82.1434 58.7558 83.5027 60.8007 85.2424 62.5535C86.9821 64.3064 89.0116 65.6941 91.3311 66.7166C93.6508 67.739 96.1515 68.2503 98.8335 68.2503C101.443 68.2503 103.907 67.739 106.227 66.7166C108.546 65.6941 110.558 64.3066 112.262 62.5535C113.965 60.801 115.324 58.7558 116.339 56.4185C117.354 54.0815 117.861 51.562 117.861 48.8597C117.861 46.1573 117.354 43.6194 116.339 41.2458C115.324 38.8721 113.965 36.809 112.262 35.0562C110.558 33.3036 108.547 31.934 106.227 30.9482C103.907 29.9623 101.443 29.469 98.8335 29.469C96.2241 29.469 93.7596 29.9621 91.4401 30.9482C89.1206 31.9343 87.091 33.3036 85.3511 35.0562C83.6117 36.809 82.2344 38.8721 81.2196 41.2458C80.2048 43.6194 79.6974 46.1573 79.6974 48.8597C79.6971 51.562 80.1865 54.0815 81.1649 56.4185Z" fill="#636363"/>
<path d="M134.93 37.576C136.38 34.0703 138.373 30.9848 140.91 28.3191C143.447 25.6533 146.455 23.5536 149.935 22.02C153.414 20.4863 157.183 19.7195 161.242 19.7195C165.229 19.7195 168.926 20.4499 172.333 21.9104C175.74 23.3711 178.675 25.3979 181.14 27.9906C183.604 30.5831 185.525 33.6507 186.902 37.1927C188.28 40.735 188.968 44.5875 188.968 48.7506V52.3658H143.846C144.208 54.6298 144.933 56.7295 146.021 58.6646C147.108 60.6 148.467 62.2799 150.098 63.704C151.729 65.1283 153.577 66.2422 155.643 67.0453C157.709 67.8486 159.901 68.2505 162.221 68.2505C168.817 68.2505 174.145 65.5116 178.204 60.034L186.141 65.9496C183.387 69.6744 179.98 72.5958 175.921 74.7137C171.862 76.8316 167.295 77.8907 162.221 77.8907C158.089 77.8907 154.23 77.1601 150.642 75.6996C147.054 74.2391 143.937 72.1939 141.291 69.5646C138.645 66.9352 136.561 63.8497 135.039 60.3077C133.517 56.7657 132.756 52.9129 132.756 48.7501C132.755 44.8064 133.48 41.0816 134.93 37.576ZM150.206 33.2486C147.126 35.8413 145.078 39.2922 144.063 43.6012H177.878C176.936 39.2922 174.924 35.8413 171.844 33.2486C168.763 30.6561 165.157 29.3597 161.025 29.3597C156.893 29.3597 153.287 30.6561 150.206 33.2486Z" fill="#636363"/>
<path d="M209.518 34.5084C207.198 37.0645 206.038 40.5336 206.038 44.9157V76.6857H195.057V20.8147H205.929V27.7165C207.307 25.4524 209.101 23.663 211.312 22.3484C213.522 21.0336 216.15 20.3762 219.195 20.3762H223V30.674H218.433C214.809 30.6743 211.837 31.9522 209.518 34.5084Z" fill="#636363"/>
</svg>
