<svg xmlns="http://www.w3.org/2000/svg" xmlns:xlink="http://www.w3.org/1999/xlink" width="160" zoomAndPan="magnify" viewBox="0 0 120 44.999999" height="60" preserveAspectRatio="xMidYMid meet" version="1.0"><defs><clipPath id="8d35062658"><path d="M 0 1.554688 L 33 1.554688 L 33 43.554688 L 0 43.554688 Z M 0 1.554688 " clip-rule="nonzero"/></clipPath><clipPath id="3fd9a19864"><path d="M 37 1.554688 L 70 1.554688 L 70 43.554688 L 37 43.554688 Z M 37 1.554688 " clip-rule="nonzero"/></clipPath><clipPath id="6125090357"><path d="M 71 12 L 102 12 L 102 43.554688 L 71 43.554688 Z M 71 12 " clip-rule="nonzero"/></clipPath></defs><g clip-path="url(#8d35062658)"><path fill="#636363" d="M 7.019531 31.550781 C 7.523438 32.90625 8.226562 34.066406 9.121094 35.03125 C 10.015625 35.996094 11.074219 36.730469 12.300781 37.242188 C 13.527344 37.753906 14.859375 38.007812 16.300781 38.007812 C 17.703125 38.007812 19.015625 37.746094 20.242188 37.214844 C 21.46875 36.683594 22.539062 35.933594 23.453125 34.972656 C 24.367188 34.007812 25.078125 32.859375 25.585938 31.519531 C 26.089844 30.183594 26.34375 28.691406 26.34375 27.039062 L 26.34375 1.554688 L 32.472656 1.554688 L 32.472656 42.847656 L 26.402344 42.847656 L 26.402344 39.011719 C 25.039062 40.46875 23.433594 41.589844 21.585938 42.375 C 19.734375 43.160156 17.742188 43.554688 15.601562 43.554688 C 13.421875 43.554688 11.386719 43.171875 9.5 42.402344 C 7.613281 41.636719 5.976562 40.546875 4.59375 39.128906 C 3.214844 37.714844 2.125 36.015625 1.324219 34.027344 C 0.527344 32.042969 0.128906 29.828125 0.128906 27.390625 L 0.128906 1.554688 L 6.257812 1.554688 L 6.257812 27.039062 C 6.257812 28.691406 6.511719 30.195312 7.019531 31.550781 Z M 7.019531 31.550781 " fill-opacity="1" fill-rule="nonzero"/></g><g clip-path="url(#3fd9a19864)"><path fill="#636363" d="M 43.039062 1.554688 L 43.039062 16.597656 C 44.402344 15.21875 45.980469 14.128906 47.769531 13.324219 C 49.558594 12.515625 51.503906 12.113281 53.605469 12.113281 C 55.785156 12.113281 57.832031 12.527344 59.738281 13.351562 C 61.644531 14.179688 63.296875 15.296875 64.699219 16.714844 C 66.101562 18.128906 67.210938 19.800781 68.027344 21.730469 C 68.84375 23.65625 69.253906 25.699219 69.253906 27.863281 C 69.253906 30.027344 68.84375 32.0625 68.027344 33.96875 C 67.210938 35.875 66.101562 37.539062 64.699219 38.953125 C 63.296875 40.367188 61.644531 41.488281 59.738281 42.316406 C 57.832031 43.140625 55.785156 43.554688 53.605469 43.554688 C 51.503906 43.554688 49.550781 43.152344 47.738281 42.34375 C 45.929688 41.539062 44.34375 40.449219 42.980469 39.070312 L 42.980469 42.847656 L 37.144531 42.847656 L 37.144531 1.554688 Z M 43.710938 31.933594 C 44.238281 33.191406 44.964844 34.292969 45.902344 35.238281 C 46.835938 36.179688 47.925781 36.929688 49.171875 37.480469 C 50.414062 38.03125 51.757812 38.304688 53.199219 38.304688 C 54.601562 38.304688 55.921875 38.03125 57.167969 37.480469 C 58.414062 36.929688 59.496094 36.179688 60.410156 35.238281 C 61.324219 34.292969 62.054688 33.191406 62.597656 31.933594 C 63.144531 30.675781 63.414062 29.320312 63.414062 27.863281 C 63.414062 26.410156 63.144531 25.042969 62.597656 23.765625 C 62.054688 22.484375 61.324219 21.375 60.410156 20.429688 C 59.496094 19.488281 58.414062 18.75 57.167969 18.21875 C 55.921875 17.6875 54.601562 17.421875 53.199219 17.421875 C 51.796875 17.421875 50.472656 17.6875 49.230469 18.21875 C 47.984375 18.75 46.894531 19.488281 45.960938 20.429688 C 45.023438 21.375 44.285156 22.484375 43.742188 23.765625 C 43.195312 25.042969 42.921875 26.410156 42.921875 27.863281 C 42.921875 29.320312 43.1875 30.675781 43.710938 31.933594 Z M 43.710938 31.933594 " fill-opacity="1" fill-rule="nonzero"/></g><g clip-path="url(#6125090357)"><path fill="#636363" d="M 72.582031 21.789062 C 73.359375 19.898438 74.429688 18.238281 75.792969 16.804688 C 77.152344 15.367188 78.769531 14.238281 80.636719 13.410156 C 82.507812 12.585938 84.53125 12.171875 86.710938 12.171875 C 88.851562 12.171875 90.835938 12.566406 92.664062 13.351562 C 94.496094 14.140625 96.070312 15.230469 97.394531 16.625 C 98.71875 18.023438 99.75 19.675781 100.488281 21.582031 C 101.226562 23.488281 101.597656 25.5625 101.597656 27.804688 L 101.597656 29.75 L 77.367188 29.75 C 77.5625 30.96875 77.953125 32.101562 78.535156 33.144531 C 79.121094 34.183594 79.851562 35.089844 80.726562 35.855469 C 81.601562 36.625 82.59375 37.222656 83.703125 37.65625 C 84.8125 38.089844 85.988281 38.304688 87.234375 38.304688 C 90.777344 38.304688 93.636719 36.828125 95.816406 33.878906 L 100.078125 37.066406 C 98.601562 39.070312 96.769531 40.644531 94.589844 41.785156 C 92.410156 42.925781 89.960938 43.496094 87.234375 43.496094 C 85.015625 43.496094 82.945312 43.101562 81.019531 42.316406 C 79.089844 41.53125 77.417969 40.429688 75.996094 39.011719 C 74.574219 37.597656 73.457031 35.933594 72.640625 34.027344 C 71.820312 32.121094 71.414062 30.046875 71.414062 27.804688 C 71.414062 25.679688 71.800781 23.675781 72.582031 21.789062 Z M 80.785156 19.457031 C 79.128906 20.855469 78.03125 22.710938 77.484375 25.03125 L 95.640625 25.03125 C 95.136719 22.710938 94.054688 20.855469 92.402344 19.457031 C 90.746094 18.0625 88.8125 17.363281 86.59375 17.363281 C 84.375 17.363281 82.4375 18.0625 80.785156 19.457031 Z M 80.785156 19.457031 " fill-opacity="1" fill-rule="nonzero"/></g><path fill="#636363" d="M 112.632812 20.136719 C 111.386719 21.511719 110.761719 23.378906 110.761719 25.738281 L 110.761719 42.847656 L 104.867188 42.847656 L 104.867188 12.761719 L 110.703125 12.761719 L 110.703125 16.480469 C 111.445312 15.257812 112.40625 14.296875 113.59375 13.589844 C 114.78125 12.878906 116.191406 12.527344 117.828125 12.527344 L 119.871094 12.527344 L 119.871094 18.070312 L 117.417969 18.070312 C 115.472656 18.070312 113.875 18.757812 112.632812 20.136719 Z M 112.632812 20.136719 " fill-opacity="1" fill-rule="nonzero"/></svg>